<?xml version="1.0" encoding="utf-8"?><svg viewBox="0 0 123 46" xmlns="http://www.w3.org/2000/svg" xmlns:xlink="http://www.w3.org/1999/xlink"><style>:root>svg{display:none}:root>svg:target{display:block}</style><svg viewBox="0 0 40 40" id="delivery" xmlns="http://www.w3.org/2000/svg"><path d="M5 20h15v2.5H5V20zM2.5 13.75H15v2.5H2.5v-2.5z"/><path d="M37.399 20.758l-3.75-8.75a1.249 1.249 0 00-1.149-.758h-3.75v-2.5A1.25 1.25 0 0027.5 7.5h-20V10h18.75v15.695a4.99 4.99 0 00-2.322 3.055h-7.855a5 5 0 100 2.5h7.855a4.975 4.975 0 009.645 0h2.677A1.25 1.25 0 0037.5 30v-8.75c0-.17-.034-.337-.101-.492zM11.25 32.5a2.5 2.5 0 110-5 2.5 2.5 0 010 5zm17.5-18.75h2.925l2.68 6.25H28.75v-6.25zm0 18.75a2.5 2.5 0 110-5 2.5 2.5 0 010 5zM35 28.75h-1.427A4.994 4.994 0 0028.75 25v-2.5H35v6.25z"/></svg><svg viewBox="0 0 34 34" id="instagram-fill" xmlns="http://www.w3.org/2000/svg"><path fill-rule="evenodd" clip-rule="evenodd" d="M10.577 1.51c1.662-.077 2.191-.093 6.424-.093 4.233 0 4.763.018 6.423.093 1.66.075 2.794.34 3.786.724a7.667 7.667 0 012.76 1.8 7.612 7.612 0 011.796 2.757c.385.992.649 2.125.725 3.783.077 1.664.094 2.194.094 6.426 0 4.233-.019 4.763-.094 6.424-.075 1.658-.34 2.791-.725 3.783a7.644 7.644 0 01-1.796 2.761 7.642 7.642 0 01-2.76 1.796c-.992.386-2.125.65-3.783.726-1.663.076-2.193.093-6.426.093-4.233 0-4.763-.018-6.424-.093-1.658-.075-2.791-.34-3.783-.726a7.645 7.645 0 01-2.76-1.796 7.638 7.638 0 01-1.799-2.76c-.384-.991-.647-2.125-.724-3.782-.076-1.665-.093-2.195-.093-6.426 0-4.233.018-4.763.093-6.423.076-1.66.34-2.794.724-3.786a7.644 7.644 0 011.8-2.76 7.639 7.639 0 012.758-1.797c.991-.384 2.125-.647 3.782-.724h.002zm12.721 2.805c-1.643-.075-2.136-.09-6.297-.09-4.16 0-4.653.015-6.297.09-1.52.07-2.344.323-2.894.537a4.839 4.839 0 00-1.792 1.164A4.834 4.834 0 004.853 7.81c-.214.55-.467 1.374-.537 2.894-.075 1.643-.09 2.136-.09 6.297 0 4.16.015 4.654.09 6.297.07 1.52.323 2.345.537 2.894.25.676.648 1.29 1.165 1.792a4.84 4.84 0 001.792 1.165c.55.214 1.374.467 2.894.537 1.644.075 2.135.09 6.297.09s4.654-.015 6.297-.09c1.52-.07 2.345-.323 2.895-.537a4.84 4.84 0 001.792-1.165 4.838 4.838 0 001.164-1.792c.214-.55.468-1.374.537-2.894.075-1.643.09-2.136.09-6.297 0-4.16-.015-4.654-.09-6.297-.07-1.52-.323-2.345-.537-2.894a4.839 4.839 0 00-1.164-1.793 4.835 4.835 0 00-1.792-1.164c-.55-.214-1.375-.468-2.895-.537zm-8.287 17.489a5.198 5.198 0 005.667-8.48 5.2 5.2 0 10-5.667 8.48zm-3.673-10.468a8.01 8.01 0 1111.327 11.327 8.01 8.01 0 01-11.327-11.327zm15.45-1.153a1.893 1.893 0 00-2.063-3.112 1.895 1.895 0 102.063 3.112z"/></svg><svg viewBox="0 0 45 45" id="leaf" xmlns="http://www.w3.org/2000/svg"><path d="M34.194 11.1a26.623 26.623 0 00-9.584-9.505l-.704-.407-.704.407A26.463 26.463 0 009.982 25.44c.14 4.119 1.715 7.584 4.555 10.021 2.173 1.866 4.96 3.005 7.963 3.276v4.858h2.813v-22.5H22.5v14.812c-4.752-.55-9.481-3.907-9.707-10.562a23.756 23.756 0 0111.113-20.89 23.756 23.756 0 0111.113 20.89c-.18 5.324-3.244 8.536-6.894 9.89v2.977a13.727 13.727 0 005.15-2.75c2.84-2.438 4.415-5.904 4.555-10.022A26.45 26.45 0 0034.194 11.1z"/></svg><svg fill="none" viewBox="0 0 123 23" id="mc-logo" xmlns="http://www.w3.org/2000/svg"><g clip-path="url(#dclip0)"><path fill-rule="evenodd" clip-rule="evenodd" d="M17.445 2.801a10.754 10.754 0 00-4.118 8.472 10.753 10.753 0 004.118 8.473 10.754 10.754 0 004.118-8.472A10.753 10.753 0 0017.445 2.8v.001zM24.108.492c-2.207 0-4.26.664-5.968 1.802.087.071.176.142.26.216a11.614 11.614 0 013.997 8.764c0 3.36-1.457 6.553-3.997 8.763-.084.073-.173.144-.26.216a10.733 10.733 0 005.968 1.802c5.954 0 10.782-4.827 10.782-10.78C34.89 5.318 30.062.491 24.108.491zM16.49 20.037c.084.073.173.144.26.216a10.73 10.73 0 01-5.968 1.802C4.827 22.055 0 17.228 0 11.275 0 5.318 4.827.491 10.782.491c2.207 0 4.26.664 5.968 1.802-.087.071-.176.142-.26.215a11.615 11.615 0 00-3.997 8.765c0 3.36 1.456 6.554 3.997 8.763zm39.932-8.717c0-1.26.825-2.295 2.176-2.295 1.29 0 2.16.99 2.16 2.295s-.87 2.295-2.16 2.295c-1.35 0-2.176-1.035-2.176-2.295zm5.806 0V7.735h-1.56v.87c-.495-.645-1.245-1.05-2.265-1.05-2.01 0-3.586 1.575-3.586 3.765 0 2.19 1.575 3.765 3.586 3.765 1.02 0 1.77-.405 2.265-1.05v.87h1.56V11.32zm52.68 0c0-1.26.826-2.295 2.176-2.295 1.29 0 2.16.99 2.16 2.295s-.87 2.295-2.16 2.295c-1.35 0-2.175-1.035-2.175-2.295h-.001zm7.55 3.245v.113h.105c.02.001.04-.004.057-.014.014-.01.02-.024.02-.044a.046.046 0 00-.005-.023.04.04 0 00-.015-.018.099.099 0 00-.057-.014h-.105zm.106-.08c.054 0 .096.013.125.037a.13.13 0 01.034.044.126.126 0 01.01.054.11.11 0 01-.008.047.11.11 0 01-.027.04.17.17 0 01-.1.042l.139.16h-.108l-.129-.16h-.041v.16h-.09v-.423h.195zm-.027.568a.347.347 0 00.326-.218.335.335 0 00.026-.136.343.343 0 00-.041-.168.346.346 0 00-.28-.187.354.354 0 00-.228.65.351.351 0 00.197.06zm0-.81a.46.46 0 01.463.456.434.434 0 01-.136.32.479.479 0 01-.327.135.464.464 0 01-.466-.455.464.464 0 01.289-.422.458.458 0 01.177-.033zm-1.823-2.923V4.855h-1.56v3.75c-.495-.645-1.245-1.05-2.265-1.05-2.01 0-3.585 1.575-3.585 3.765 0 2.19 1.575 3.765 3.585 3.765 1.02 0 1.77-.405 2.265-1.05v.87h1.56V11.32zM81.578 8.95c1.005 0 1.65.63 1.815 1.74h-3.72c.165-1.035.795-1.74 1.905-1.74zm.03-1.395c-2.1 0-3.57 1.53-3.57 3.765 0 2.28 1.53 3.765 3.675 3.765 1.08 0 2.07-.27 2.94-1.005l-.765-1.155c-.6.48-1.365.75-2.085.75-1.005 0-1.92-.465-2.145-1.755h5.325c.015-.195.03-.39.03-.6-.015-2.235-1.395-3.765-3.405-3.765zm18.825 3.765c0-1.26.825-2.295 2.176-2.295 1.29 0 2.16.99 2.16 2.295s-.87 2.295-2.16 2.295c-1.35 0-2.176-1.035-2.176-2.295zm5.806 0V7.735h-1.56v.87c-.495-.645-1.245-1.05-2.266-1.05-2.01 0-3.585 1.575-3.585 3.765 0 2.19 1.575 3.765 3.585 3.765 1.02 0 1.77-.405 2.266-1.05v.87h1.56V11.32zm-14.61 0c0 2.175 1.514 3.765 3.825 3.765 1.08 0 1.8-.24 2.58-.855l-.75-1.26c-.586.42-1.2.645-1.876.645-1.245-.015-2.16-.915-2.16-2.295s.915-2.28 2.16-2.295c.675 0 1.29.225 1.875.645l.75-1.26c-.78-.615-1.5-.855-2.58-.855-2.31 0-3.825 1.59-3.825 3.765h.001zm20.1-3.765c-.9 0-1.485.42-1.89 1.05v-.87h-1.545v7.17h1.56v-4.02c0-1.185.51-1.845 1.53-1.845.315 0 .645.045.975.18l.48-1.47a3.333 3.333 0 00-1.11-.195zm-41.791.75c-.75-.495-1.785-.75-2.925-.75-1.815 0-2.985.87-2.985 2.295 0 1.17.87 1.89 2.474 2.115l.736.105c.855.12 1.26.345 1.26.75 0 .555-.57.87-1.635.87-1.08 0-1.86-.345-2.386-.75l-.734 1.215c.854.63 1.935.93 3.105.93 2.07 0 3.27-.975 3.27-2.34 0-1.26-.945-1.92-2.505-2.145l-.735-.105c-.675-.09-1.215-.225-1.215-.705 0-.525.51-.84 1.365-.84.915 0 1.8.345 2.235.615l.675-1.26zm20.115-.75c-.9 0-1.485.42-1.89 1.05v-.87h-1.545v7.17h1.56v-4.02c0-1.185.51-1.845 1.53-1.845.315 0 .645.045.975.18l.48-1.47a3.33 3.33 0 00-1.11-.195zm-13.305.18h-2.55V5.56h-1.575v2.175h-1.455V9.16h1.455v3.27c0 1.665.645 2.655 2.49 2.655.675 0 1.455-.21 1.95-.555l-.45-1.335c-.465.27-.975.405-1.38.405-.78 0-1.035-.48-1.035-1.2V9.16h2.55V7.735zm-23.31 7.17v-4.5c0-1.695-1.08-2.835-2.82-2.85-.916-.015-1.86.27-2.52 1.275-.496-.795-1.276-1.275-2.37-1.275-.766 0-1.516.225-2.1 1.065v-.885h-1.56v7.17h1.574V10.93c0-1.245.69-1.905 1.755-1.905 1.035 0 1.56.675 1.56 1.89v3.99h1.575V10.93c0-1.245.72-1.905 1.755-1.905 1.065 0 1.575.675 1.575 1.89v3.99H53.438zm-18.885 3.05v-.42h-.11l-.125.29-.126-.289h-.109v.418h.077v-.315l.118.272h.08l.118-.273v.316h.077v.001zm-.692 0v-.348h.14v-.07h-.356v.07h.14v.347h.076v.001z" fill="#fff"/></g><defs><clipPath id="dclip0"><path fill="#fff" d="M0 0h123v23H0z"/></clipPath></defs></svg><svg viewBox="0 0 45 46" id="medal" xmlns="http://www.w3.org/2000/svg"><path d="M28.861 34.5l.325 6.738-6.667-4.736-6.705 4.74.325-6.742h-2.816l-.485 10.063h3.225L22.515 40l6.422 4.563h3.226L31.677 34.5h-2.816zM36.51 13.918l-.192-4.317-3.56-2.33-2.28-3.64-4.224-.198L22.5 1.446l-3.754 1.988-4.223.197-2.28 3.64-3.56 2.33-.193 4.317-1.945 3.838 1.945 3.837.193 4.317 3.56 2.33 2.28 3.64 4.223.198 3.754 1.987 3.754-1.987 4.224-.198 2.279-3.64 3.56-2.33.194-4.316 1.944-3.838-1.944-3.838zm-2.78 6.913l-.155 3.46-2.855 1.868-1.826 2.917-3.385.158-3.009 1.594-3.009-1.594-3.385-.158-1.826-2.917-2.854-1.867-.155-3.46-1.559-3.076 1.56-3.076.154-3.46 2.854-1.867 1.826-2.918 3.385-.158 3.01-1.593 3.008 1.593 3.385.158 1.827 2.918 2.854 1.867.154 3.46 1.56 3.076-1.56 3.075z"/></svg><svg fill="none" viewBox="0 0 55 16" id="mir-logo" xmlns="http://www.w3.org/2000/svg"><path fill-rule="evenodd" clip-rule="evenodd" d="M14.588 0v.007c-.007 0-2.115-.007-2.677 2.016-.515 1.855-1.967 6.976-2.007 7.117h-.402S8.017 3.905 7.495 2.016C6.933-.007 4.818 0 4.818 0H0v15.39h4.818V6.25h.402l2.81 9.14h3.346l2.81-9.133h.402v9.134h4.818V0h-4.818zm17.626 0s-1.424.128-2.092 1.613L26.679 9.14h-.405V0h-4.86v15.39h4.59s1.492-.133 2.16-1.612l3.375-7.528h.405v9.14h4.86V0h-4.59zm6.598 6.692v8.699h4.732v-5.08h5.126c2.235 0 4.128-1.51 4.83-3.62H38.813l-.001.001zM48.962 0H38.203c.538 2.793 2.735 5.036 5.578 5.766.66.17 1.34.257 2.022.257h8.292c.074-.334.108-.673.108-1.026C54.203 2.236 51.858 0 48.962 0z" fill="#fff"/></svg><svg viewBox="0 0 12 12" id="plane" xmlns="http://www.w3.org/2000/svg"><path d="M.168 4.348a.53.53 0 00.339.515L4.884 6.7l2.008 4.003a.59.59 0 00.53.311h.034a.617.617 0 00.322-.11.537.537 0 00.199-.257l3.264-9.088a.504.504 0 00-.142-.544.626.626 0 00-.595-.13L.568 3.871a.585.585 0 00-.28.182.507.507 0 00-.12.295zm9.604-2.12l-2.44 6.793-1.478-2.946a.56.56 0 00-.287-.263L2.345 4.46 9.772 2.23z"/></svg><svg fill="none" viewBox="0 0 24 24" id="plus" xmlns="http://www.w3.org/2000/svg"><path d="M12 12H4m8 8v-8 8zm0-8V4v8zm0 0h8-8z" stroke="#2E3831" stroke-width="2" stroke-linecap="round"/></svg><svg fill="none" viewBox="0 0 34 34" id="suitcase" xmlns="http://www.w3.org/2000/svg"><path d="M26.917 14.167H7.083A2.833 2.833 0 004.25 17v11.333a2.833 2.833 0 002.833 2.834h19.834a2.833 2.833 0 002.833-2.834V17a2.833 2.833 0 00-2.833-2.833zM8.5 8.5a4.25 4.25 0 014.25-4.25h8.5A4.25 4.25 0 0125.5 8.5v5.667h-17V8.5z" stroke="#2E3831" stroke-width="2.333" stroke-linecap="round" stroke-linejoin="round"/></svg><svg fill="none" viewBox="0 0 53 18" id="visa-logo" xmlns="http://www.w3.org/2000/svg"><g clip-path="url(#jclip0)"><path d="M23.014 16.242h-4.208L21.438 0h4.207l-2.631 16.242zM37.613.705A10.524 10.524 0 0033.779 0c-4.221 0-7.194 2.254-7.212 5.475-.035 2.377 2.128 3.698 3.746 4.49 1.654.81 2.216 1.34 2.216 2.06-.017 1.11-1.336 1.62-2.567 1.62-1.707 0-2.621-.263-4.01-.88l-.564-.264-.598 3.715c1.003.457 2.85.863 4.768.88 4.485 0 7.405-2.218 7.44-5.65.017-1.885-1.126-3.329-3.589-4.509C31.914 6.18 31 5.67 31 4.895c.017-.705.774-1.426 2.462-1.426a7.255 7.255 0 013.184.634l.387.175.58-3.573zm6.634 9.783c.354-.933 1.712-4.544 1.712-4.544-.017.034.353-.95.565-1.555l.3 1.4s.811 3.887.988 4.7h-3.565zM49.541 0h-3.317c-1.023 0-1.8.293-2.242 1.348l-6.37 14.894h4.5l.9-2.436h5.506c.123.57.512 2.436.512 2.436H53L49.54 0h.001zM4.48 2.067C3.161 1.337 1.665.75 0 .335L.073 0H7.18c.963.035 1.745.335 2 1.395l1.544 7.628c-.688-1.822-1.828-3.504-3.391-4.925 1.458 1.398 2.603 3.114 3.092 4.74l.461 2.25L15.106 0h4.555L12.89 16.242H8.333L4.48 2.067z" fill="#fff"/></g><defs><clipPath id="jclip0"><path fill="#fff" d="M0 0h53v18H0z"/></clipPath></defs></svg><svg viewBox="0 0 34 34" id="vk-fill" xmlns="http://www.w3.org/2000/svg"><g clip-path="url(#kclip0)"><path fill-rule="evenodd" clip-rule="evenodd" d="M33.22 8.427c.236-.774 0-1.343-1.125-1.343h-3.72c-.945 0-1.382.491-1.618 1.034 0 0-1.892 4.527-4.57 7.468-.868.853-1.261 1.124-1.735 1.124-.236 0-.592-.27-.592-1.046V8.427c0-.93-.26-1.343-1.048-1.343h-5.848c-.59 0-.946.43-.946.84 0 .88 1.34 1.083 1.477 3.56v5.38c0 1.18-.217 1.394-.69 1.394-1.26 0-4.328-4.549-6.148-9.754-.353-1.012-.71-1.42-1.66-1.42H1.275C.212 7.083 0 7.574 0 8.117c0 .966 1.26 5.765 5.872 12.114 3.074 4.335 7.402 6.685 11.345 6.685 2.364 0 2.656-.522 2.656-1.421v-3.277c0-1.044.224-1.252.973-1.252.553 0 1.498.272 3.705 2.361 2.522 2.478 2.937 3.589 4.356 3.589h3.719c1.062 0 1.595-.522 1.289-1.553-.337-1.026-1.541-2.514-3.138-4.281-.867-1.006-2.167-2.09-2.563-2.632-.55-.696-.393-1.006 0-1.625 0 0 4.534-6.27 5.005-8.4h.002z"/></g><defs><clipPath id="kclip0"><path fill="#fff" d="M0 0h34v34H0z"/></clipPath></defs></svg></svg>