<?xml version="1.0" encoding="utf-8"?><svg viewBox="0 0 369 169" xmlns="http://www.w3.org/2000/svg" xmlns:xlink="http://www.w3.org/1999/xlink"><style>:root>svg{display:none}:root>svg:target{display:block}</style><svg fill="none" viewBox="0 0 6 4" id="angle-down" xmlns="http://www.w3.org/2000/svg"><path d="M2.795 3.892a.25.25 0 00.41 0l2.25-3.25A.25.25 0 005.25.25H.75a.25.25 0 00-.205.392l2.25 3.25z" fill="#0498CE"/></svg><svg fill="none" viewBox="0 0 14 8" id="angle-down-black" xmlns="http://www.w3.org/2000/svg"><path d="M7 7.5l7-7H0l7 7z" fill="#2E3831"/></svg><svg fill="none" viewBox="0 0 11 9" id="angle-yellow-left" xmlns="http://www.w3.org/2000/svg"><path d="M5.5 9L0 0h11L5.5 9z" fill="#FDCF28"/></svg><svg fill="none" viewBox="0 0 18 12" id="arr-blue" xmlns="http://www.w3.org/2000/svg"><path fill-rule="evenodd" clip-rule="evenodd" d="M.25 6a.625.625 0 01.625-.625h14.741l-3.934-3.932a.626.626 0 11.886-.885l5 5a.625.625 0 010 .885l-5 5a.626.626 0 01-.886-.885l3.934-3.933H.875A.625.625 0 01.25 6z" fill="#0498CE"/></svg><svg fill="none" viewBox="0 0 18 12" id="arr-white" xmlns="http://www.w3.org/2000/svg"><path fill-rule="evenodd" clip-rule="evenodd" d="M.25 6a.625.625 0 01.625-.625h14.741l-3.934-3.933a.626.626 0 11.886-.885l5 5a.625.625 0 010 .885l-5 5a.626.626 0 11-.886-.885l3.934-3.932H.875A.625.625 0 01.25 6z" fill="#fff"/></svg><svg fill="none" viewBox="0 0 19 16" id="arrow-video" xmlns="http://www.w3.org/2000/svg"><path d="M6.86 15.188L.454 8.78V6.987L6.86.582l1.82 1.794-4.203 4.228H18.75v2.563H4.477l4.228 4.228-1.845 1.793z" fill="#000"/></svg><svg fill="none" viewBox="0 0 20 20" id="attach-popup" xmlns="http://www.w3.org/2000/svg"><path d="M13.334 1.667a5 5 0 013.663 8.403l-.158.162-7.273 7.272-.044.042-.047.037a3.1 3.1 0 01-4.377-4.368l.124-.137.013-.009 6.074-6.087a.834.834 0 011.18 1.178l-6.074 6.086-.01.007a1.434 1.434 0 001.907 2.128l.102-.084v.001l7.252-7.25.133-.137a3.334 3.334 0 00-4.794-4.629l-.13.134-.015.01L3.09 12.2a.835.835 0 01-1.36-.271.834.834 0 01.181-.909l7.757-7.76.038-.036a4.987 4.987 0 013.629-1.558z" fill="#fff"/></svg><svg fill="none" viewBox="0 0 18 28" id="black-arr-down" xmlns="http://www.w3.org/2000/svg"><path fill-rule="evenodd" clip-rule="evenodd" d="M9 .875a.938.938 0 01.937.938v22.111l5.899-5.9a.939.939 0 111.327 1.327l-7.5 7.5a.937.937 0 01-1.327 0l-7.5-7.5a.938.938 0 111.328-1.327l5.898 5.9V1.813A.938.938 0 019 .875z" fill="#2E3831"/></svg><svg viewBox="0 0 40 40" id="delivery" xmlns="http://www.w3.org/2000/svg"><path d="M5 20h15v2.5H5V20zM2.5 13.75H15v2.5H2.5v-2.5z"/><path d="M37.399 20.758l-3.75-8.75a1.249 1.249 0 00-1.149-.758h-3.75v-2.5A1.25 1.25 0 0027.5 7.5h-20V10h18.75v15.695a4.99 4.99 0 00-2.322 3.055h-7.855a5 5 0 100 2.5h7.855a4.975 4.975 0 009.645 0h2.677A1.25 1.25 0 0037.5 30v-8.75c0-.17-.034-.337-.101-.492zM11.25 32.5a2.5 2.5 0 110-5 2.5 2.5 0 010 5zm17.5-18.75h2.925l2.68 6.25H28.75v-6.25zm0 18.75a2.5 2.5 0 110-5 2.5 2.5 0 010 5zM35 28.75h-1.427A4.994 4.994 0 0028.75 25v-2.5H35v6.25z"/></svg><svg fill="none" viewBox="0 0 9 11" id="fa-solid_play" xmlns="http://www.w3.org/2000/svg"><g clip-path="url(#ajclip0)"><path d="M8.526 4.314L1.454.133C.88-.207 0 .123 0 .963v8.359a.963.963 0 001.454.83l7.072-4.18a.963.963 0 000-1.659z" fill="#0498CE"/></g><defs><clipPath id="ajclip0"><path fill="#fff" d="M0 0h9v10.286H0z"/></clipPath></defs></svg><svg fill="none" viewBox="0 0 48 48" id="failed-one" xmlns="http://www.w3.org/2000/svg"><path d="M40 23v-9L31 4H10a2 2 0 00-2 2v36a2 2 0 002 2h12M29 30l12 12M41 30L29 42" stroke="#0498CE" stroke-width="4" stroke-linecap="round" stroke-linejoin="round"/><path d="M30 4v10h10" stroke="#0498CE" stroke-width="4" stroke-linecap="round" stroke-linejoin="round"/></svg><svg fill="none" viewBox="0 0 24 24" id="file-pr" xmlns="http://www.w3.org/2000/svg"><path d="M13.125 11.25a.375.375 0 01-.375-.375V2.25h-2.684a3.066 3.066 0 00-.304-.46C9.222 1.12 8.418.75 7.5.75c-1.766 0-3 1.388-3 3.375v6.75c0 1.172.953 1.875 1.875 1.875a1.856 1.856 0 001.875-1.875V3.75h-1.5v7.125a.363.363 0 01-.375.375c-.105 0-.375-.068-.375-.375v-6.75c0-.907.394-1.875 1.5-1.875C8.892 2.25 9 3.663 9 4.096V10.6c0 .818-.256 1.558-.722 2.084-.473.535-1.131.816-1.903.816s-1.43-.281-1.903-.816c-.466-.526-.722-1.266-.722-2.084V6.75h-1.5v3.85c0 2.414 1.556 4.201 3.75 4.384v6.954a.562.562 0 00.563.562h14.625a.562.562 0 00.562-.563V11.25h-8.625z" fill="#0498CE"/><path d="M14.438 9.75h6.858a.094.094 0 00.066-.16L14.41 2.638a.093.093 0 00-.16.066v6.858a.188.188 0 00.188.188z" fill="#0498CE"/></svg><svg fill="none" viewBox="0 0 34 34" id="instagram-fill" xmlns="http://www.w3.org/2000/svg"><path fill-rule="evenodd" clip-rule="evenodd" d="M10.575 1.51c1.662-.076 2.192-.093 6.425-.093s4.763.018 6.423.093c1.66.075 2.794.34 3.786.724a7.666 7.666 0 012.76 1.8 7.61 7.61 0 011.796 2.758c.385.991.648 2.125.725 3.782.076 1.665.093 2.194.093 6.426 0 4.233-.018 4.763-.093 6.425-.075 1.657-.34 2.79-.726 3.782a7.645 7.645 0 01-1.796 2.761 7.64 7.64 0 01-2.76 1.797c-.991.385-2.124.648-3.782.725-1.663.076-2.193.093-6.426.093-4.233 0-4.763-.018-6.425-.093-1.657-.075-2.79-.34-3.782-.725a7.646 7.646 0 01-2.761-1.797 7.638 7.638 0 01-1.798-2.76c-.384-.991-.647-2.124-.724-3.782-.076-1.664-.093-2.194-.093-6.426 0-4.233.018-4.763.093-6.423.075-1.66.34-2.794.724-3.785a7.644 7.644 0 011.8-2.76A7.639 7.639 0 016.79 2.234c.992-.384 2.125-.647 3.783-.724h.001zm12.722 2.805c-1.643-.075-2.136-.09-6.297-.09-4.16 0-4.654.015-6.297.09-1.52.07-2.345.323-2.894.537a4.84 4.84 0 00-1.792 1.165 4.834 4.834 0 00-1.165 1.792c-.214.55-.467 1.374-.537 2.894-.075 1.643-.09 2.136-.09 6.297 0 4.16.015 4.654.09 6.297.07 1.52.323 2.345.537 2.894.25.676.647 1.29 1.165 1.793a4.837 4.837 0 001.792 1.164c.55.214 1.374.468 2.894.537 1.643.075 2.135.09 6.297.09s4.654-.015 6.297-.09c1.52-.07 2.345-.323 2.894-.537a4.84 4.84 0 001.792-1.165 4.837 4.837 0 001.165-1.792c.214-.55.467-1.374.537-2.894.075-1.643.09-2.136.09-6.297 0-4.16-.015-4.654-.09-6.297-.07-1.52-.323-2.345-.537-2.894a4.84 4.84 0 00-1.165-1.792 4.835 4.835 0 00-1.792-1.165c-.55-.214-1.374-.467-2.894-.537zm-8.288 17.489a5.198 5.198 0 005.667-8.48 5.2 5.2 0 10-5.666 8.48zm-3.673-10.468A8.012 8.012 0 0124.4 13.935a8.01 8.01 0 11-13.064-2.599zm15.45-1.153a1.894 1.894 0 10-2.599-2.755 1.894 1.894 0 002.6 2.755z" fill="#fff"/></svg><svg viewBox="0 0 34 34" id="instagram-fill2" xmlns="http://www.w3.org/2000/svg"><path fill-rule="evenodd" clip-rule="evenodd" d="M10.577 1.51c1.662-.077 2.191-.093 6.424-.093 4.233 0 4.763.018 6.423.093 1.66.075 2.794.34 3.786.724a7.667 7.667 0 012.76 1.8 7.612 7.612 0 011.796 2.757c.385.992.649 2.125.725 3.783.077 1.664.094 2.194.094 6.426 0 4.233-.019 4.763-.094 6.424-.075 1.658-.34 2.791-.725 3.783a7.644 7.644 0 01-1.796 2.761 7.642 7.642 0 01-2.76 1.796c-.992.386-2.125.65-3.783.726-1.663.076-2.193.093-6.426.093-4.233 0-4.763-.018-6.424-.093-1.658-.075-2.791-.34-3.783-.726a7.645 7.645 0 01-2.76-1.796 7.638 7.638 0 01-1.799-2.76c-.384-.991-.647-2.125-.724-3.782-.076-1.665-.093-2.195-.093-6.426 0-4.233.018-4.763.093-6.423.076-1.66.34-2.794.724-3.786a7.644 7.644 0 011.8-2.76 7.639 7.639 0 012.758-1.797c.991-.384 2.125-.647 3.782-.724h.002zm12.721 2.805c-1.643-.075-2.136-.09-6.297-.09-4.16 0-4.653.015-6.297.09-1.52.07-2.344.323-2.894.537a4.839 4.839 0 00-1.792 1.164A4.834 4.834 0 004.853 7.81c-.214.55-.467 1.374-.537 2.894-.075 1.643-.09 2.136-.09 6.297 0 4.16.015 4.654.09 6.297.07 1.52.323 2.345.537 2.894.25.676.648 1.29 1.165 1.792a4.84 4.84 0 001.792 1.165c.55.214 1.374.467 2.894.537 1.644.075 2.135.09 6.297.09s4.654-.015 6.297-.09c1.52-.07 2.345-.323 2.895-.537a4.84 4.84 0 001.792-1.165 4.838 4.838 0 001.164-1.792c.214-.55.468-1.374.537-2.894.075-1.643.09-2.136.09-6.297 0-4.16-.015-4.654-.09-6.297-.07-1.52-.323-2.345-.537-2.894a4.839 4.839 0 00-1.164-1.793 4.835 4.835 0 00-1.792-1.164c-.55-.214-1.375-.468-2.895-.537zm-8.287 17.489a5.198 5.198 0 005.667-8.48 5.2 5.2 0 10-5.667 8.48zm-3.673-10.468a8.01 8.01 0 1111.327 11.327 8.01 8.01 0 01-11.327-11.327zm15.45-1.153a1.893 1.893 0 00-2.063-3.112 1.895 1.895 0 102.063 3.112z"/></svg><svg viewBox="0 0 45 45" id="leaf" xmlns="http://www.w3.org/2000/svg"><path d="M34.194 11.1a26.623 26.623 0 00-9.584-9.505l-.704-.407-.704.407A26.463 26.463 0 009.982 25.44c.14 4.119 1.715 7.584 4.555 10.021 2.173 1.866 4.96 3.005 7.963 3.276v4.858h2.813v-22.5H22.5v14.812c-4.752-.55-9.481-3.907-9.707-10.562a23.756 23.756 0 0111.113-20.89 23.756 23.756 0 0111.113 20.89c-.18 5.324-3.244 8.536-6.894 9.89v2.977a13.727 13.727 0 005.15-2.75c2.84-2.438 4.415-5.904 4.555-10.022A26.45 26.45 0 0034.194 11.1z"/></svg><svg fill="none" viewBox="0 0 138 33" id="logo-egger" xmlns="http://www.w3.org/2000/svg"><g clip-path="url(#apclip0)"><path d="M136.758 0H30.59v10.986h106.168V0z" fill="#A5A5A5"/><path d="M30.59 22.113v10.145h18.906v-2.15c0-.234-.092-.281-.276-.281H36.846v-3.6h10.718v-2.15c0-.187-.092-.28-.276-.28H36.846v-3.694h12.65v-2.15c0-.188-.092-.281-.276-.281H34.96c-2.438 0-4.37 2.01-4.37 4.441zM56.443 17.672h14.444c.183 0 .275.047.275.28v2.15H58.328v9.491h10.35v-3.366h-6.44v-2.15c0-.187.093-.28.276-.28h8.28c.184 0 .276.093.276.28v8.18H51.98V22.16c.093-2.478 2.025-4.488 4.463-4.488zM78.385 17.672h14.444c.184 0 .276.047.276.28v2.15H80.27v9.491h10.35v-3.366h-6.44v-2.15c0-.187.091-.28.276-.28h8.28c.184 0 .276.093.276.28v8.18H73.969V22.16c.046-2.478 2.024-4.488 4.416-4.488zM96.002 22.113v10.145h18.906v-2.15c0-.234-.092-.281-.276-.281h-12.374v-3.6h10.718v-2.15c0-.187-.092-.28-.276-.28h-10.396v-3.694H115v-2.15c0-.188-.092-.281-.276-.281h-14.352c-2.392 0-4.37 2.01-4.37 4.441z" fill="silver"/><path d="M0 17.672h20.838v2.758H9.798v3.132h11.04v2.805H9.844v3.18h10.994v2.71H0V17.673z" fill="#A5A5A5"/><path d="M133.032 17.672c2.116 0 3.772 2.15 3.772 4.254 0 2.15-1.702 4.254-3.772 4.254h-1.702l6.44 5.564s.644.514-.046.514h-6.808c-.276 0-.46-.187-.736-.374.23.187-6.44-5.657-6.44-5.657v6.078h-6.256V22.16c0-2.478 1.932-4.441 4.37-4.441h11.178v-.047zm-.92 6.124c.644 0 1.61-.654 1.61-1.87 0-1.309-.874-1.87-1.61-1.87h-8.372v3.693l8.372.047z" fill="silver"/></g><defs><clipPath id="apclip0"><path fill="#fff" d="M0 0h138v33H0z"/></clipPath></defs></svg><svg fill="none" viewBox="0 0 146 34" id="logo-egger-c" xmlns="http://www.w3.org/2000/svg"><g clip-path="url(#aqclip0)"><path d="M144.686 0H32.363v11.414h112.323V0z" fill="#D30E21"/><path d="M32.363 22.975v10.54h20.002V31.28c0-.242-.097-.291-.292-.291H38.982v-3.74h11.34v-2.234c0-.195-.098-.292-.293-.292H38.982v-3.837h13.383v-2.234c0-.195-.097-.292-.292-.292H36.987a4.617 4.617 0 00-4.624 4.615zM59.715 18.36h15.281c.195 0 .292.049.292.292v2.234H61.71v9.86h10.95V27.25h-6.813v-2.234c0-.195.097-.292.292-.292h8.76c.195 0 .292.097.292.292v8.5H54.994V23.023c.098-2.574 2.142-4.663 4.72-4.663zM82.928 18.36h15.281c.195 0 .292.049.292.292v2.234H84.923v9.86h10.95V27.25H89.06v-2.234c0-.195.097-.292.292-.292h8.76c.195 0 .292.097.292.292v8.5H78.256V23.023c.049-2.574 2.141-4.663 4.672-4.663zM101.566 22.975v10.54h20.002V31.28c0-.242-.097-.291-.292-.291h-13.091v-3.74h11.339v-2.234c0-.195-.097-.292-.292-.292h-10.998v-3.837h13.432v-2.234c0-.195-.098-.292-.292-.292H106.19c-2.531 0-4.624 2.089-4.624 4.615z" fill="#000"/><path d="M0 18.36h22.046v2.866h-11.68v3.254h11.68v2.915H10.415v3.303h11.631v2.817H0V18.36z" fill="#D30E21"/><path d="M140.744 18.36c2.239 0 3.991 2.235 3.991 4.42 0 2.235-1.801 4.42-3.991 4.42h-1.8l6.813 5.78s.681.535-.049.535h-7.202c-.292 0-.487-.195-.779-.389.243.194-6.813-5.877-6.813-5.877v6.314h-6.619v-10.54a4.586 4.586 0 014.623-4.614h11.826v-.049zm-.973 6.363c.681 0 1.703-.68 1.703-1.943 0-1.36-.924-1.943-1.703-1.943h-8.857v3.838l8.857.048z" fill="#000"/></g><defs><clipPath id="aqclip0"><path fill="#fff" d="M0 0h146v34H0z"/></clipPath></defs></svg><svg fill="none" viewBox="0 0 139 29" id="logo-kronospan" xmlns="http://www.w3.org/2000/svg"><path d="M53.053 7.31H46.52v14.931h6.532V7.311zM26.364 7.31h-3.29v7.466h6.58v-4.132c0-1.831-1.483-3.333-3.29-3.333zM99.709 7.31h-6.533V28.91h6.533V7.31z" fill="#A5A5A5"/><path d="M99.108 8.015h-5.329v20.142h5.329V8.015z" fill="silver"/><path d="M91.694 10.644l-.046-.281c-.14-1.738-1.53-3.1-3.29-3.1-.14 0-.324 0-.463.048h-2.827v2.864c0 .14-.046.281-.046.47 0 .14 0 .328.046.469v.751h6.533v-.094h.047v-1.127h.046zM112.451 7.31c-1.715 0-3.151 1.362-3.244 3.1V11.863h6.533V7.359l-3.289-.047zM7.876 7.31v3.804c0 .14-.046.281-.046.47 0 .187 0 .328.046.469v4.789c0 .14-.046.282-.046.47 0 .14 0 .328.046.469v4.507h6.533v-5.07c0-1.221-.648-2.254-1.575-2.864a3.424 3.424 0 001.575-2.63v-4.46H7.876v.047zM60.605 10.597c0-1.83-1.483-3.333-3.29-3.333-.139 0-.324 0-.463.047h-2.827v14.93h6.533V11.067c.047-.188.047-.329.047-.47zM123.34 7.31h-6.533v14.931h6.533V7.311zM131.355 7.31h-6.533v14.931h6.533V7.311zM135.756 7.31h-3.289v14.931H139V10.597c0-1.83-1.437-3.286-3.244-3.286z" fill="#A5A5A5"/><path d="M90.86 10.268c0-1.267-1.112-2.253-2.548-2.253h-2.595v3.052h5.097v-.047h.046v-.752z" fill="silver"/><path d="M22.193 7.31H15.66v14.931h6.533V7.311zM6.533.69H0v21.505h6.533V.69z" fill="#A5A5A5"/><path d="M122.737 7.92h-5.329v13.57h5.329V7.92zM130.799 7.92h-5.328v13.57h5.328V7.92zM135.757 7.92h-2.687v13.57h5.328V10.926c0-1.643-1.158-3.005-2.641-3.005zM112.544 7.92c-1.344 0-2.456.987-2.595 2.255v1.08h5.143V7.968l-2.548-.047z" fill="silver"/><path d="M114.628 12.852h-2.177c-1.251 0-2.363.75-2.919 1.784-.232.375-.325.751-.325.986v3.333a3.31 3.31 0 002.595 3.24H115.787V12.805l-1.159.047z" fill="#A5A5A5"/><path d="M114.211 13.509h-1.713c-1.02 0-1.901.61-2.318 1.55-.184.328-.278.61-.278.844v2.818c0 1.361.881 2.488 2.04 2.77h3.197v-7.936h-.928v-.046z" fill="silver"/><path d="M37.76 18.532v-7.465c0-.141.047-.282.047-.47 0-.14 0-.328-.046-.47V7.265h-2.826c-.14 0-.278-.047-.464-.047-1.807 0-3.29 1.502-3.29 3.333v8.358a3.316 3.316 0 002.734 3.287H37.715v-2.818c0-.14.046-.281.046-.469.046-.094 0-.235 0-.376zM41.793 7.264c-.139 0-.324 0-.463.047h-2.827v2.864c0 .14-.046.281-.046.47 0 .14 0 .328.046.469v7.418c0 .141-.046.282-.046.47 0 .14 0 .328.046.47v2.816h3.846a3.36 3.36 0 002.734-3.286v-8.358c0-1.878-1.437-3.38-3.29-3.38zM65.284 7.31c-1.807 0-3.29 1.503-3.29 3.334 0 .141 0 .329.047.47v7.418c0 .141-.047.282-.047.47 0 1.55 1.02 2.817 2.456 3.193h4.17V7.31h-3.336zM84.048 18.016v-.282h-6.532v1.456c.139 1.455 1.158 2.676 2.548 2.958h.741v.047h3.243v-4.179s.047 0 0 0z" fill="#A5A5A5"/><path d="M90.86 14.119c-.093-.047-.185-.141-.279-.188-.601-.423-1.435-.798-2.686-.892-.973-.188-2.04-.423-2.827-.658-.648-.187-.926-.516-.973-.657V7.311h-3.29c-1.807 0-3.29 1.502-3.29 3.333v3.334c0 .375.232.939.788 1.455.556.47 1.483.986 2.966 1.127.694.141 1.39.282 2.039.47.045 0 .092.047.139.047.184.047.37.093.509.14.047 0 .047 0 .092.048.834.234 1.02.704 1.02.704v4.32h3.845a3.36 3.36 0 002.735-3.287v-3.334c.045-.422-.186-1.033-.789-1.55zM72.79 7.31H69.5v14.932H73.485a3.35 3.35 0 002.594-3.24h.047v-8.358c-.047-1.878-1.53-3.333-3.336-3.333zM104.25 7.31h-3.289v14.885h3.984a3.35 3.35 0 002.595-3.24v-8.311c0-1.878-1.483-3.333-3.29-3.333z" fill="#A5A5A5"/><path d="M83.354 18.392h-5.096v1.032c.093 1.174 1.158 2.113 2.548 2.113h2.548v-3.145z" fill="silver"/><path d="M87.523 13.696c-3.614-.657-3.892-1.127-4.17-1.69V8.015h-2.13c-1.622 0-2.966 1.361-2.966 3.005 0 0-.046 2.864 0 3.005.695 1.502 2.687 1.784 3.753 1.878 1.436.328 3.66.704 3.706 1.69v3.944H88.496c1.39-.235 2.457-1.502 2.457-3.005v-3.005c-.279-1.268-2.318-1.737-3.43-1.831zM104.296 8.11h-2.595V21.49h3.197c1.159-.282 2.039-1.503 2.039-2.911v-7.513c0-1.596-1.205-2.958-2.641-2.958z" fill="silver"/></svg><svg fill="none" viewBox="0 0 149 34" id="logo-kronospan-c" xmlns="http://www.w3.org/2000/svg"><g clip-path="url(#asclip0)"><path d="M56.868 9.277h-7.003v15.446h7.003V9.277zM28.26 9.277h-3.526V17h7.053v-4.274c0-1.894-1.59-3.449-3.526-3.449zM106.882 9.277h-7.003V31.62h7.003V9.277z" fill="#036BAE"/><path d="M106.237 10.006h-5.712v20.837h5.712V10.006z" fill="#fff"/><path d="M98.29 12.726l-.049-.292c-.149-1.797-1.639-3.205-3.526-3.205-.15 0-.348 0-.497.048h-3.03v2.963c0 .146-.05.291-.05.486 0 .145 0 .34.05.485v.778h7.003v-.098h.05v-1.165h.05zM120.541 9.277c-1.838 0-3.377 1.409-3.477 3.206V13.99h7.003V9.326l-3.526-.049zM8.444 9.277v3.934c0 .146-.05.292-.05.486s0 .34.05.486v4.954c0 .146-.05.291-.05.486 0 .145 0 .34.05.485v4.663h7.003v-5.245c0-1.263-.695-2.332-1.688-2.963a3.526 3.526 0 001.688-2.72V9.229H8.444v.048zM64.965 12.677c0-1.894-1.59-3.448-3.527-3.448-.149 0-.347 0-.496.048h-3.03v15.446h7.003v-11.56c.05-.194.05-.34.05-.486zM132.212 9.277h-7.003v15.446h7.003V9.277zM140.806 9.277h-7.003v15.446h7.003V9.277zM145.522 9.277h-3.526v15.446h7.003V12.677c0-1.894-1.54-3.4-3.477-3.4z" fill="#036BAE"/><path d="M97.396 12.337c0-1.311-1.192-2.331-2.732-2.331h-2.781v3.157h5.463v-.049h.05v-.777z" fill="#fff"/><path d="M23.79 9.277h-7.003v15.446h7.003V9.277zM7.003 2.429H0v22.245h7.003V2.43z" fill="#036BAE"/><path d="M131.567 9.908h-5.712v14.037h5.712V9.908zM140.21 9.908h-5.712v14.037h5.712V9.908zM145.523 9.908h-2.88v14.037h5.711V13.017c0-1.7-1.241-3.109-2.831-3.109zM120.641 9.908c-1.441 0-2.633 1.02-2.782 2.332v1.117h5.513v-3.4l-2.731-.049z" fill="#fff"/><path d="M122.875 15.008h-2.334c-1.341 0-2.533.778-3.129 1.846-.248.389-.348.777-.348 1.02v3.449c0 1.651 1.192 3.011 2.782 3.351h4.271V14.96l-1.242.048z" fill="#036BAE"/><path d="M122.428 15.688h-1.838a2.715 2.715 0 00-2.483 1.603c-.199.34-.298.632-.298.875v2.914c0 1.409.943 2.574 2.185 2.866h3.427v-8.209h-.993v-.049z" fill="#fff"/><path d="M40.478 20.885v-7.723c0-.145.05-.29.05-.485 0-.146 0-.34-.05-.486V9.228h-3.03c-.148 0-.297-.048-.496-.048-1.937 0-3.526 1.554-3.526 3.448v8.646c0 1.7 1.241 3.108 2.93 3.4h4.072V21.76c0-.146.05-.292.05-.486.05-.097 0-.243 0-.389zM44.799 9.229c-.15 0-.348 0-.497.048h-3.03v2.963c0 .146-.05.291-.05.486 0 .145 0 .34.05.485v7.675c0 .145-.05.291-.05.485 0 .146 0 .34.05.486v2.914h4.123c1.639-.291 2.93-1.7 2.93-3.4v-8.645c0-1.943-1.54-3.497-3.526-3.497zM69.98 9.277c-1.938 0-3.527 1.555-3.527 3.449 0 .146 0 .34.05.486V20.886c0 .146-.05.291-.05.486 0 1.602 1.093 2.914 2.632 3.302H73.555V9.277H69.98zM90.095 20.352v-.291h-7.003v1.505c.149 1.506 1.242 2.769 2.731 3.06h.795v.049h3.477v-4.323c.05 0 0 0 0 0z" fill="#036BAE"/><path d="M97.396 16.32c-.1-.048-.199-.146-.298-.194-.646-.437-1.54-.826-2.88-.923-1.044-.194-2.186-.437-3.03-.68-.696-.194-.994-.534-1.044-.68V9.277h-3.526c-1.937 0-3.526 1.555-3.526 3.449v3.448c0 .39.248.972.844 1.506.596.486 1.59 1.02 3.179 1.166.745.146 1.49.291 2.185.486.05 0 .1.048.15.048.198.049.397.097.546.146.05 0 .05 0 .099.049.894.242 1.093.728 1.093.728v4.469h4.122c1.639-.292 2.93-1.7 2.93-3.4v-3.449c.05-.437-.198-1.068-.844-1.603zM78.026 9.277H74.5V24.723h4.271c1.59-.34 2.782-1.748 2.782-3.351h.05v-8.647c-.05-1.942-1.64-3.448-3.577-3.448zM111.751 9.277h-3.526V24.674h4.271c1.589-.34 2.781-1.748 2.781-3.35v-8.598c0-1.943-1.589-3.449-3.526-3.449z" fill="#036BAE"/><path d="M89.35 20.74h-5.463v1.069c.1 1.214 1.241 2.185 2.731 2.185h2.732V20.74z" fill="#fff"/><path d="M93.82 15.883c-3.873-.68-4.171-1.166-4.47-1.749v-4.128h-2.284c-1.738 0-3.179 1.408-3.179 3.108 0 0-.05 2.963 0 3.109.745 1.554 2.881 1.846 4.023 1.943 1.54.34 3.924.728 3.974 1.748v4.08H94.864a3.159 3.159 0 002.632-3.108v-3.109c-.298-1.311-2.483-1.797-3.675-1.894zM111.799 10.102h-2.781v13.843H112.445c1.241-.291 2.185-1.554 2.185-3.011v-7.772c0-1.65-1.291-3.06-2.831-3.06z" fill="#fff"/></g><defs><clipPath id="asclip0"><path fill="#fff" d="M0 0h149v34H0z"/></clipPath></defs></svg><svg fill="none" viewBox="0 0 123 23" id="mc-logo" xmlns="http://www.w3.org/2000/svg"><g clip-path="url(#atclip0)"><path fill-rule="evenodd" clip-rule="evenodd" d="M17.445 2.801a10.754 10.754 0 00-4.118 8.472 10.753 10.753 0 004.118 8.473 10.754 10.754 0 004.118-8.472A10.753 10.753 0 0017.445 2.8v.001zM24.108.492c-2.207 0-4.26.664-5.968 1.802.087.071.176.142.26.216a11.614 11.614 0 013.997 8.764c0 3.36-1.457 6.553-3.997 8.763-.084.073-.173.144-.26.216a10.733 10.733 0 005.968 1.802c5.954 0 10.782-4.827 10.782-10.78C34.89 5.318 30.062.491 24.108.491zM16.49 20.037c.084.073.173.144.26.216a10.73 10.73 0 01-5.968 1.802C4.827 22.055 0 17.228 0 11.275 0 5.318 4.827.491 10.782.491c2.207 0 4.26.664 5.968 1.802-.087.071-.176.142-.26.215a11.615 11.615 0 00-3.997 8.765c0 3.36 1.456 6.554 3.997 8.763zm39.932-8.717c0-1.26.825-2.295 2.176-2.295 1.29 0 2.16.99 2.16 2.295s-.87 2.295-2.16 2.295c-1.35 0-2.176-1.035-2.176-2.295zm5.806 0V7.735h-1.56v.87c-.495-.645-1.245-1.05-2.265-1.05-2.01 0-3.586 1.575-3.586 3.765 0 2.19 1.575 3.765 3.586 3.765 1.02 0 1.77-.405 2.265-1.05v.87h1.56V11.32zm52.68 0c0-1.26.826-2.295 2.176-2.295 1.29 0 2.16.99 2.16 2.295s-.87 2.295-2.16 2.295c-1.35 0-2.175-1.035-2.175-2.295h-.001zm7.55 3.245v.113h.105c.02.001.04-.004.057-.014.014-.01.02-.024.02-.044a.046.046 0 00-.005-.023.04.04 0 00-.015-.018.099.099 0 00-.057-.014h-.105zm.106-.08c.054 0 .096.013.125.037a.13.13 0 01.034.044.126.126 0 01.01.054.11.11 0 01-.008.047.11.11 0 01-.027.04.17.17 0 01-.1.042l.139.16h-.108l-.129-.16h-.041v.16h-.09v-.423h.195zm-.027.568a.347.347 0 00.326-.218.335.335 0 00.026-.136.343.343 0 00-.041-.168.346.346 0 00-.28-.187.354.354 0 00-.228.65.351.351 0 00.197.06zm0-.81a.46.46 0 01.463.456.434.434 0 01-.136.32.479.479 0 01-.327.135.464.464 0 01-.466-.455.464.464 0 01.289-.422.458.458 0 01.177-.033zm-1.823-2.923V4.855h-1.56v3.75c-.495-.645-1.245-1.05-2.265-1.05-2.01 0-3.585 1.575-3.585 3.765 0 2.19 1.575 3.765 3.585 3.765 1.02 0 1.77-.405 2.265-1.05v.87h1.56V11.32zM81.578 8.95c1.005 0 1.65.63 1.815 1.74h-3.72c.165-1.035.795-1.74 1.905-1.74zm.03-1.395c-2.1 0-3.57 1.53-3.57 3.765 0 2.28 1.53 3.765 3.675 3.765 1.08 0 2.07-.27 2.94-1.005l-.765-1.155c-.6.48-1.365.75-2.085.75-1.005 0-1.92-.465-2.145-1.755h5.325c.015-.195.03-.39.03-.6-.015-2.235-1.395-3.765-3.405-3.765zm18.825 3.765c0-1.26.825-2.295 2.176-2.295 1.29 0 2.16.99 2.16 2.295s-.87 2.295-2.16 2.295c-1.35 0-2.176-1.035-2.176-2.295zm5.806 0V7.735h-1.56v.87c-.495-.645-1.245-1.05-2.266-1.05-2.01 0-3.585 1.575-3.585 3.765 0 2.19 1.575 3.765 3.585 3.765 1.02 0 1.77-.405 2.266-1.05v.87h1.56V11.32zm-14.61 0c0 2.175 1.514 3.765 3.825 3.765 1.08 0 1.8-.24 2.58-.855l-.75-1.26c-.586.42-1.2.645-1.876.645-1.245-.015-2.16-.915-2.16-2.295s.915-2.28 2.16-2.295c.675 0 1.29.225 1.875.645l.75-1.26c-.78-.615-1.5-.855-2.58-.855-2.31 0-3.825 1.59-3.825 3.765h.001zm20.1-3.765c-.9 0-1.485.42-1.89 1.05v-.87h-1.545v7.17h1.56v-4.02c0-1.185.51-1.845 1.53-1.845.315 0 .645.045.975.18l.48-1.47a3.333 3.333 0 00-1.11-.195zm-41.791.75c-.75-.495-1.785-.75-2.925-.75-1.815 0-2.985.87-2.985 2.295 0 1.17.87 1.89 2.474 2.115l.736.105c.855.12 1.26.345 1.26.75 0 .555-.57.87-1.635.87-1.08 0-1.86-.345-2.386-.75l-.734 1.215c.854.63 1.935.93 3.105.93 2.07 0 3.27-.975 3.27-2.34 0-1.26-.945-1.92-2.505-2.145l-.735-.105c-.675-.09-1.215-.225-1.215-.705 0-.525.51-.84 1.365-.84.915 0 1.8.345 2.235.615l.675-1.26zm20.115-.75c-.9 0-1.485.42-1.89 1.05v-.87h-1.545v7.17h1.56v-4.02c0-1.185.51-1.845 1.53-1.845.315 0 .645.045.975.18l.48-1.47a3.33 3.33 0 00-1.11-.195zm-13.305.18h-2.55V5.56h-1.575v2.175h-1.455V9.16h1.455v3.27c0 1.665.645 2.655 2.49 2.655.675 0 1.455-.21 1.95-.555l-.45-1.335c-.465.27-.975.405-1.38.405-.78 0-1.035-.48-1.035-1.2V9.16h2.55V7.735zm-23.31 7.17v-4.5c0-1.695-1.08-2.835-2.82-2.85-.916-.015-1.86.27-2.52 1.275-.496-.795-1.276-1.275-2.37-1.275-.766 0-1.516.225-2.1 1.065v-.885h-1.56v7.17h1.574V10.93c0-1.245.69-1.905 1.755-1.905 1.035 0 1.56.675 1.56 1.89v3.99h1.575V10.93c0-1.245.72-1.905 1.755-1.905 1.065 0 1.575.675 1.575 1.89v3.99H53.438zm-18.885 3.05v-.42h-.11l-.125.29-.126-.289h-.109v.418h.077v-.315l.118.272h.08l.118-.273v.316h.077v.001zm-.692 0v-.348h.14v-.07h-.356v.07h.14v.347h.076v.001z" fill="#fff"/></g><defs><clipPath id="atclip0"><path fill="#fff" d="M0 0h123v23H0z"/></clipPath></defs></svg><svg viewBox="0 0 45 46" id="medal" xmlns="http://www.w3.org/2000/svg"><path d="M28.861 34.5l.325 6.738-6.667-4.736-6.705 4.74.325-6.742h-2.816l-.485 10.063h3.225L22.515 40l6.422 4.563h3.226L31.677 34.5h-2.816zM36.51 13.918l-.192-4.317-3.56-2.33-2.28-3.64-4.224-.198L22.5 1.446l-3.754 1.988-4.223.197-2.28 3.64-3.56 2.33-.193 4.317-1.945 3.838 1.945 3.837.193 4.317 3.56 2.33 2.28 3.64 4.223.198 3.754 1.987 3.754-1.987 4.224-.198 2.279-3.64 3.56-2.33.194-4.316 1.944-3.838-1.944-3.838zm-2.78 6.913l-.155 3.46-2.855 1.868-1.826 2.917-3.385.158-3.009 1.594-3.009-1.594-3.385-.158-1.826-2.917-2.854-1.867-.155-3.46-1.559-3.076 1.56-3.076.154-3.46 2.854-1.867 1.826-2.918 3.385-.158 3.01-1.593 3.008 1.593 3.385.158 1.827 2.918 2.854 1.867.154 3.46 1.56 3.076-1.56 3.075z"/></svg><svg fill="none" viewBox="0 0 55 16" id="mir-logo" xmlns="http://www.w3.org/2000/svg"><path fill-rule="evenodd" clip-rule="evenodd" d="M14.588 0v.007c-.007 0-2.115-.007-2.677 2.016-.515 1.855-1.967 6.976-2.007 7.117h-.402S8.017 3.905 7.495 2.016C6.933-.007 4.818 0 4.818 0H0v15.39h4.818V6.25h.402l2.81 9.14h3.346l2.81-9.133h.402v9.134h4.818V0h-4.818zm17.626 0s-1.424.128-2.092 1.613L26.679 9.14h-.405V0h-4.86v15.39h4.59s1.492-.133 2.16-1.612l3.375-7.528h.405v9.14h4.86V0h-4.59zm6.598 6.692v8.699h4.732v-5.08h5.126c2.235 0 4.128-1.51 4.83-3.62H38.813l-.001.001zM48.962 0H38.203c.538 2.793 2.735 5.036 5.578 5.766.66.17 1.34.257 2.022.257h8.292c.074-.334.108-.673.108-1.026C54.203 2.236 51.858 0 48.962 0z" fill="#fff"/></svg><svg viewBox="0 0 365 118" id="more-bg-1" xmlns="http://www.w3.org/2000/svg"><path d="M20.999 99C9.289 84.628 3.81 71.106 5.209 59m0 0C9.06 25.619 65.178 3 186.998 3c166 0 278 84 34 106S1.356 92.381 5.209 59z"/></svg><svg viewBox="0 0 369 169" id="more-bg-2" xmlns="http://www.w3.org/2000/svg"><path d="M25 88C11 50 136.998-32 306.998 20c170 52-65.999 182-224 136C-75 110 44.318 20 71 20"/></svg><svg viewBox="0 0 353 161" id="more-bg-3" xmlns="http://www.w3.org/2000/svg"><path d="M6 93C-7 6 89.297-16.627 221.394 20.237 353.49 57.1 432.723 163.807 213.196 158.144-9.081 152.41-5 63 8.498 40"/></svg><svg fill="none" viewBox="0 0 26 26" id="pag-more" xmlns="http://www.w3.org/2000/svg"><path d="M8.328 13.813h3.86v3.859c0 .112.09.203.203.203h1.218a.204.204 0 00.204-.203v-3.86h3.859a.204.204 0 00.203-.203v-1.218a.204.204 0 00-.203-.204h-3.86V8.329a.204.204 0 00-.203-.203h-1.218a.204.204 0 00-.204.203v3.86H8.329a.204.204 0 00-.203.203v1.218c0 .112.091.204.203.204z" fill="#2E3831"/><path d="M22.344 2.844H3.656a.812.812 0 00-.812.812v18.688c0 .45.363.812.812.812h18.688c.45 0 .812-.363.812-.812V3.656a.812.812 0 00-.812-.812zm-1.016 18.484H4.672V4.672h16.656v16.656z" fill="#2E3831"/></svg><svg fill="none" viewBox="0 0 8 14" id="pag-prev" xmlns="http://www.w3.org/2000/svg"><path d="M6.475 13.117a1.164 1.164 0 01-.825-.342L.701 7.825a1.167 1.167 0 010-1.65l4.949-4.95a1.167 1.167 0 011.65 1.65L3.175 7 7.3 11.125a1.167 1.167 0 01-.825 1.992z" fill="#2E3831"/></svg><svg fill="none" viewBox="0 0 116 30" id="partners-blum" xmlns="http://www.w3.org/2000/svg"><path fill-rule="evenodd" clip-rule="evenodd" d="M111.098 2.351c0-.567.245-1.135.654-1.621.408-.406.98-.649 1.633-.649.572 0 1.144.243 1.634.649.409.405.654.973.654 1.621 0 .568-.245 1.135-.654 1.622-.408.405-.98.649-1.634.649-.572 0-1.143-.244-1.633-.649-.491-.487-.654-1.054-.654-1.622zm.245 0c0-.486.163-.973.572-1.378a1.92 1.92 0 011.389-.568c.49 0 .98.163 1.388.568.409.405.572.892.572 1.378 0 .487-.163.973-.572 1.379a1.919 1.919 0 01-1.388.567 1.92 1.92 0 01-1.389-.567c-.327-.406-.572-.892-.572-1.379zm1.634-.162h.49c.082 0 .163 0 .163-.08.082-.082.082-.082.082-.163s0-.081-.082-.162c-.081 0-.081-.081-.163-.081h-.49v.486zm0 1.379h-.735V1.216h1.47c.163 0 .327.081.49.162.164.081.245.244.327.406 0 .243 0 .405-.163.567-.082.081-.164.081-.245.162.163 0 .326.163.326.325V3c0 .162 0 .324.082.486 0 .082 0 .082.082.163h-.736c0-.081-.081-.081-.081-.163 0-.162 0-.324-.082-.405 0-.081 0-.081-.082-.162-.081-.081-.081-.081-.163-.081h-.408v.73h-.082zM1.878 28.216l4.738-11.838c.082-.324.327-.486.654-.567.327-.081.653 0 .898.162.572.405 1.062.892 1.553 1.378a.506.506 0 00.571.081c.164-.08.245-.324.245-.567-.163-2.92-.408-5.595-.653-8.514 0-.243-.163-.405-.409-.486-.245-.081-.408 0-.571.162l-6.454 6c-.163.081-.163.324-.082.487a.45.45 0 00.409.243c.653.08 1.225.08 1.879.08.408 0 .735.163.98.487.245.325.327.73.163 1.054l-4.738 11.92-.735.08L4.983 16.46c.081-.243.081-.486-.082-.648-.164-.162-.327-.325-.572-.325a8.602 8.602 0 00-2.042 0c-.409 0-.735-.243-.899-.648-.163-.324-.082-.73.245-1.054l6.78-6.325a1.277 1.277 0 011.308-.324c.49.162.735.568.816 1.054.164 3.162.409 6 .654 9.162.082.406-.163.811-.49 1.054a.988.988 0 01-1.144 0 14.764 14.764 0 01-1.715-1.46c-.082-.161-.245-.161-.409-.161-.163 0-.327.162-.408.243a95.31 95.31 0 00-4.493 11.27l-.654-.08zm20.423-5.27c.408.567 1.062.892 1.96.892.899 0 1.798-.325 2.696-.892A9.309 9.309 0 0029 21c1.144-1.622 1.798-3.243 1.88-4.784 0-.73-.164-1.378-.49-1.946-.41-.567-1.145-.892-1.961-.892-.899 0-1.798.325-2.696.892a9.314 9.314 0 00-2.043 1.946c-1.225 1.622-1.878 3.243-1.878 4.865-.082.73.081 1.378.49 1.865zm-11.682 5.513L21.402.892h8.006l-3.676 9.324c2.859-1.621 5.718-2.351 8.496-2.108 2.859.243 4.82 1.865 5.228 4.378.653 3.892-1.144 8.433-4.82 12.325-2.45 2.513-5.637 4.216-8.74 4.46-2.86.242-5.229-.65-6.536-2.433l-.654 1.703H10.62v-.082zm25.57 0L46.97.892h8.333L44.52 28.459h-8.332zM75.807 8.838l-7.679 19.621h-7.842l.735-1.864a11.125 11.125 0 01-3.35 1.783c-2.777.892-5.31.973-7.433.081-2.45-.973-3.268-3.486-2.124-6.324L53.26 8.92h8.17l-4.575 11.676c-.327.81-.245 1.54.081 2.108.327.567.98.892 1.798.892.816 0 1.715-.325 2.614-.892.817-.568 1.47-1.298 1.797-2.108L67.72 8.919h8.087v-.081zm.98 0h7.27l-.816 2.189c2.859-2.27 6.208-3.324 9.067-2.838 1.797.324 3.023 1.379 3.513 3 1.225-1.054 2.532-1.784 4.003-2.351 2.45-.892 4.738-1.054 6.698-.406 2.533.892 3.513 3.65 2.369 6.65l-4.819 13.296h-7.516l4.248-11.675c.327-.811.245-1.54-.082-2.19-.326-.567-.98-.891-1.797-.891-.735 0-1.552.324-2.369.892-.735.567-1.307 1.297-1.634 2.108l-4.248 11.756h-7.76l4.248-11.675c.327-.811.245-1.622-.082-2.19-.408-.567-1.062-.891-1.879-.81-.735 0-1.552.324-2.287.892-.735.567-1.226 1.297-1.552 2.027l-4.33 11.756h-7.597l7.352-19.54z" fill="#A5A5A5"/></svg><svg fill="none" viewBox="0 0 137 80" id="partners-boyard" xmlns="http://www.w3.org/2000/svg"><path d="M41.749 45.84h-5.756s-1.297 2.64-4.377 2.64c-1.946.08-4.054-.96-5.026-2.64h-5.756s2.513 7.44 10.782 7.44c7.214 0 10.133-7.44 10.133-7.44zM69.311 44.48c.081 0 2.027-5.44 2.027-5.44l2.027 5.44h5.512l-4.783-12.16h-5.512l-4.783 12.16h5.512zM40.45 58.88h-2.512l-1.46 6.8h.892l.568-2.8h2.188c1.622 0 2.432-1.04 2.432-2.24.081-1.12-.648-1.76-2.107-1.76zm-.486 3.28H38.1l.567-2.48h1.297c.811 0 1.703 0 1.703 1.04.08.96-.649 1.44-1.703 1.44zM55.61 44.48l8.188-12.16h-6.81l-4.134 7.44h-.648l-4.783-7.44h-6.161l8.187 12.16h6.161zM55.61 45.84h-6.16v7.44h6.16v-7.44zM12.484 45.84c.405.32.648.8.648 1.28 0 .64-.648 2-3.404 2H6.323V44.4h10.944c-.568-.8-1.297-1.44-2.027-2-.973-.56-.648-.64-.648-.64s2.026-2 2.026-4.08-1.621-5.44-6.89-5.44H.81v21.04h10.943c2.676-.08 5.107-1.68 6.161-4.08a5.925 5.925 0 000-3.36h-5.431zM6.08 36s1.945.08 3.729 0c1.783-.08 1.864 4.72-.162 4.72H6.08V36zM26.184 44.48s-1.216-7.44 4.945-7.44c6.728 0 5.35 7.44 5.35 7.44h5.513s1.62-12.16-10.944-12.16c-12.565 0-10.376 12.16-10.376 12.16h5.512zM124.11 42.4c0-4.8-4.783-10.16-8.917-10.16h-9.566V44.4h4.783v-8.08h3.405c2.431 0 5.512 3.52 5.512 6.08s-2.594 6.8-5.512 6.8h-3.405v-3.36h-4.783v7.44h10.295c4.053 0 8.188-6 8.188-10.88z" fill="#A5A5A5"/><path d="M78.228 25.52l-4.135-7.44-4.782 12.88h6.89l2.027-5.44z" fill="silver"/><path d="M125.084 34.48c1.216 0 2.351-.64 2.919-1.68.324-.48.486-1.12.405-1.68 0-.56-.162-1.2-.405-1.68-.325-.48-.73-.88-1.216-1.2-.487-.32-1.135-.48-1.703-.4-.567 0-1.216.16-1.702.48-.487.32-.973.72-1.216 1.2a3.526 3.526 0 000 3.36c.648 1.04 1.702 1.68 2.918 1.6zm-2.351-4.72c.243-.4.568-.72.973-.96a2.975 2.975 0 012.837 0c.406.24.73.56.973.96.487.88.487 1.92 0 2.8-.243.4-.567.72-.973.96-.405.24-.891.4-1.378.4-.486 0-.973-.08-1.378-.32a2.786 2.786 0 01-.973-.96c-.567-.96-.567-2-.081-2.88z" fill="#A5A5A5"/><path d="M124.679 31.92h.648l.73 1.04h.973l-.811-1.2a.726.726 0 00.486-.48c.163-.24.163-.48.163-.72 0-.4-.163-.72-.406-.96-.324-.24-.729-.4-1.216-.32h-1.621v3.68h.973v-1.04h.081zm-.081-1.84h.567c.162 0 .406.08.487.16.162.08.162.24.162.4 0 .16-.081.32-.162.4-.163.08-.325.16-.487.16h-.567v-1.12zM91.2 45.84l4.863 7.44h6.81l-5.513-7.44H91.2zM90.55 45.84h-4.782v7.44h4.782v-7.44z" fill="#A5A5A5"/><path d="M83.66 30.96l2.107-5.44-4.135-7.44-4.782 12.88h6.81z" fill="silver"/><path d="M60.395 53.28h6.16l1.379-4.08h6.89l1.378 4.08h6.161l-2.756-7.44H63.151l-2.757 7.44z" fill="#A5A5A5"/><path d="M91.198 30.96l2.108-5.44-4.135-7.44-4.782 12.88h6.81z" fill="silver"/><path d="M83.903 60.8l-.244 1.04a9.868 9.868 0 01-1.297 3.2h-.567l-.486 2.24h.81l.325-1.52h3.728l-.324 1.52h.81l.487-2.24h-.648l.891-4.24h-3.485zm1.702 4.16h-2.432c.567-.96.973-2 1.216-3.12l.081-.48h1.865l-.73 3.6zM112.517 60.64h-.324c-1.54 0-2.675 1.36-2.675 3.12-.081 1.04.648 2 1.702 2.08h.324a2.182 2.182 0 002.27-1.68h-.81c-.162.64-.73 1.04-1.378 1.04-.649 0-1.297-.48-1.297-1.12v-.24-.32h3.728c.082-.24.082-.56.082-.8.081-1.04-.649-2-1.622-2.08zm.811 1.92v.16h-2.837c.081-.8.81-1.44 1.702-1.52.649-.08 1.216.4 1.216 1.04-.081.16-.081.24-.081.32zM89.252 63.44c-.324 1.2-.648 1.6-1.054 1.6-.162 0-.243 0-.405-.08l-.162.64c.162.08.405.08.567.08.811 0 1.378-.56 1.784-2.08l.567-2.16h1.703l-.892 4.24h.81l1.054-4.88h-3.323l-.649 2.64zM105.222 64.72l-.648-3.92h-1.135l-1.054 4.88h.81l.811-3.92h.081l.568 3.92h.81l2.27-3.92-.811 3.92h.811l1.054-4.88h-1.216l-2.351 3.92zM94.442 62.08v.24c0 .64.405 1.12 1.053 1.2l-2.188 2.08h1.053l1.946-2.08h1.054l-.486 2.08h.81l1.054-4.88h-2.594c-.81-.08-1.621.56-1.702 1.36zm3.404-.64l-.324 1.52h-1.135c-.486 0-1.135 0-1.135-.64 0-.56.406-.88 1.135-.88h1.46zM118.518 59.04c-.811 0-1.621.4-2.189 1.04-.729 1.12-1.054 2.4-1.135 3.68-.162 1.04.568 1.92 1.622 2h.405c1.702 0 2.756-1.52 2.756-3.12a1.79 1.79 0 00-1.621-1.92h-.405c-.73 0-1.378.4-1.784 1.04.406-1.2 1.054-1.84 2.108-1.92.892-.08 1.945 0 2.189-1.04h-.811c-.162.16-.486.16-1.135.24zm-.648 2.32c.648-.08 1.216.4 1.216 1.04v.24c0 1.36-.811 2.4-1.784 2.4-.648 0-1.297-.48-1.297-1.2v-.24c0-.96.649-2.24 1.865-2.24zM127.272 63.44c-.325 1.2-.649 1.6-1.054 1.6-.162 0-.243 0-.405-.08l-.163.64c.163.08.406.08.568.08.81 0 1.378-.56 1.783-2.08l.568-2.16h1.702l-.892 4.24h.811l1.054-4.88h-3.324l-.648 2.64zM123.949 60.64h-.324c-1.541 0-2.675 1.36-2.675 3.12-.082 1.04.648 2 1.702 2.08h.324a2.182 2.182 0 002.27-1.68h-.811c-.162.64-.729 1.04-1.378 1.04-.81-.08-1.378-.8-1.297-1.52v-.16h3.729c.081-.24.081-.56.081-.8.081-1.04-.648-2-1.621-2.08zm.811 1.92v.16h-2.838c.081-.8.811-1.44 1.703-1.52.648-.08 1.216.4 1.216 1.04-.081.16-.081.24-.081.32zM76.77 60.64h-.325c-1.54 0-2.675 1.36-2.675 3.12-.081 1.04.648 2 1.702 2.08h.324a2.182 2.182 0 002.27-1.68h-.81c-.162.64-.73 1.04-1.379 1.04-.648 0-1.296-.48-1.296-1.2v-.24-.32h3.728c.082-.24.082-.56.082-.8.162-.96-.568-1.92-1.622-2zm.89 1.92v.16h-2.836c.08-.8.81-1.44 1.702-1.52.648-.08 1.216.4 1.216 1.04-.081.16-.081.24-.081.32zM59.826 60.64h-.324c-1.54 0-2.675 1.36-2.675 3.12-.082 1.04.648 2 1.702 2.08h.324a2.182 2.182 0 002.27-1.68h-.81c-.163.64-.73 1.04-1.379 1.04-.81-.08-1.378-.72-1.297-1.52v-.16h3.73c.08-.24.08-.56.08-.8.081-1.04-.648-2-1.621-2.08zm.81 1.92v.16H57.8c.081-.8.81-1.44 1.703-1.52.648-.08 1.216.4 1.216 1.04 0 .16-.082.24-.082.32zM54.394 64.96h-2.107l.972-4.16h-.81l-.973 4.16h-2.027l.892-4.16h-.81l-1.054 4.88h6.566l1.054-4.88h-.811l-.892 4.16zM135.866 60.72l-3 4 .811-4h-.811l-1.054 4.96h1.135l3.081-4-.892 4h.811l1.054-4.96h-1.135zM46.127 60.64h-.325c-1.54 0-2.675 1.36-2.675 3.12-.08 1.04.649 2 1.703 2.08h.324a2.182 2.182 0 002.27-1.68h-.811c-.162.64-.73 1.04-1.378 1.04-.649 0-1.297-.48-1.297-1.2v-.24-.32h3.729c.08-.24.08-.56.08-.8.163-.96-.566-1.92-1.62-2zm.891 1.92v.16h-2.837c.081-.8.81-1.44 1.702-1.52.649-.08 1.216.4 1.216 1.04-.08.16-.08.24-.08.32zM68.906 64.72l.892-3.92h-.81l-1.054 4.88h1.053l3.08-4-.89 4h.81l1.054-4.88h-1.054l-3.08 3.92zM66.069 62.72h-2.432l.405-1.92h-.81l-1.054 4.88h.81l.487-2.32h2.432l-.406 2.32h.811l1.054-4.88h-.81l-.487 1.92zM95.333 32.32h-9.565v12.16H96.71c1.946 0 4.135-3.68 4.135-6.08 0-2.48-2.757-6.08-5.513-6.08zm-.81 8.4H90.55V36h3.973c2.594.08 2.27 4.72 0 4.72z" fill="#A5A5A5"/></svg><svg fill="none" viewBox="0 0 131 27" id="partners-candy" xmlns="http://www.w3.org/2000/svg"><path fill-rule="evenodd" clip-rule="evenodd" d="M77.945 10.473l-3.439 7.69-4.667-7.69h-8.105l-4.585 9.982-2.293-10.064H47.57s-1.064 0-1.965.41a6.02 6.02 0 00-1.31.818L37.5 17.59c-4.176 3.273-11.545 5.236-13.592 5.318-9.825.41-11.871-6.218-11.134-9.409C14.492 5.32 27.183 3.437 33.814 3.437c3.112 0 5.732.655 7.779 1.146l1.964-3.437L42.002.82c-1.72-.245-4.503-.818-9.17-.818C13.919-.081 4.258 5.237 1.31 12.028c-3.357 7.69 2.293 14.563 18.094 14.563 2.866 0 8.515-.246 13.837-2.21h5.24l2.62-2.372h7.942l.328 2.537h8.76v-.082h4.667l3.684-8.1 4.831 8.1h7.533l6.468-14.073h-7.369v.082zM44.131 19.31l4.257-4.009.41 3.927-4.667.082zM99.15 10.473H87.278l-6.55 14.072H92.6c9.498.082 13.346-3.6 14.656-6.382 1.474-3.109.246-7.69-8.106-7.69zm1.147 6.79c-.901 3.518-6.141 3.764-7.942 3.764h-2.129l3.111-7.036h2.129c2.047 0 5.649.327 4.831 3.272z" fill="#A5A5A5"/><path fill-rule="evenodd" clip-rule="evenodd" d="M122.403 10.392l-5.895 5.89-1.965-5.809h-7.287l4.749 10.718-4.749 4.664h6.222s1.228-.164 1.72-.328c.491-.163 1.228-.9 1.228-.9l14.164-14.235h-8.187z" fill="#A5A5A5"/></svg><svg fill="none" viewBox="0 0 125 37" id="partners-lex" xmlns="http://www.w3.org/2000/svg"><path d="M17.695 9.974c2.76 0 5.032-2.252 5.032-4.987C22.727 2.252 20.454 0 17.695 0c-2.76 0-5.033 2.252-5.033 4.987 0 2.735 2.273 4.987 5.033 4.987z" fill="silver"/><path d="M29.789 22.602c.65 0 1.136-.483 1.136-1.126 0-.644-.487-1.126-1.136-1.126-.65 0-1.137.482-1.137 1.126.081.563.569 1.126 1.137 1.126zM28.977 26.142c.65 0 1.218-.564 1.218-1.207 0-.643-.568-1.206-1.218-1.206s-1.217.563-1.217 1.206a1.19 1.19 0 001.217 1.207zM27.111 29.198c.73 0 1.299-.563 1.299-1.287s-.568-1.287-1.299-1.287c-.73 0-1.299.563-1.299 1.287s.569 1.287 1.3 1.287zM22.97 31.29a1.448 1.448 0 100-2.896 1.448 1.448 0 100 2.895zM17.777 32.737c.974 0 1.704-.724 1.704-1.69 0-.965-.73-1.689-1.704-1.689s-1.705.724-1.705 1.69c0 .884.73 1.689 1.705 1.689zM11.12 31.772c1.055 0 1.948-.885 1.948-1.93 0-1.046-.893-1.93-1.948-1.93s-1.948.884-1.948 1.93c0 1.045.893 1.93 1.948 1.93zM5.113 27.589a2.173 2.173 0 002.192-2.172 2.173 2.173 0 00-2.192-2.172 2.173 2.173 0 00-2.191 2.172c0 1.206.974 2.172 2.191 2.172zM3.085 19.546c1.46 0 2.76-1.206 2.76-2.734 0-1.448-1.218-2.655-2.76-2.655-1.461 0-2.679 1.207-2.679 2.655 0 1.528 1.218 2.734 2.679 2.734zM7.468 11.985c2.03 0 3.734-1.69 3.734-3.7 0-2.01-1.705-3.7-3.734-3.7-2.03 0-3.734 1.69-3.734 3.7 0 2.01 1.705 3.7 3.734 3.7zM44.805 7.963c0-1.126.892-2.01 2.029-2.01 1.136 0 2.03.884 2.03 2.01v16.73h16.801c1.136 0 2.03.885 2.03 2.011 0 1.126-.893 2.011-2.03 2.011H46.834c-1.137 0-2.03-.885-2.03-2.01V7.962zM93.831 24.694c1.137 0 2.03.884 2.03 2.01s-.893 2.011-2.03 2.011H74.838c-1.136 0-2.03-.885-2.03-2.01V7.962c0-1.126.893-2.01 2.03-2.01H93.75c1.136 0 2.03.884 2.03 2.01s-.894 2.01-2.03 2.01H76.867v14.72h16.964zM101.786 9.25c-.812-.805-.812-2.092 0-2.816.812-.804 2.11-.804 2.841 0l9.497 9.33c.811.805.811 2.092 0 2.816l-9.741 9.572c-.811.804-2.11.804-2.841 0-.811-.805-.811-2.092 0-2.816l8.28-8.123-8.036-7.963zM118.587 14.559a2.07 2.07 0 01-2.922 0c-.811-.805-.811-2.092 0-2.816l5.439-5.389a2.07 2.07 0 012.922 0 2.027 2.027 0 010 2.896l-5.439 5.309zM115.583 22.603c-.811-.804-.811-2.091 0-2.815.812-.805 2.111-.805 2.841 0l5.52 5.47c.811.804.811 2.09 0 2.815a2.07 2.07 0 01-2.922 0l-5.439-5.47zM45.21 36.356v-3.941h.57v3.459h1.785v.482H45.21zm7.63 0v-3.941h.569v3.941h-.568zm6.738-3.458v1.126h1.38v.482h-1.38v1.93h-.568v-3.94h2.435v.482l-1.867-.08zm7.71 0v1.126h1.3v.482h-1.3v1.448h1.787v.483H66.72v-3.941h2.354v.482l-1.786-.08zM81.412 32.898v1.126h1.299v.482h-1.3v1.448h1.787v.483h-2.354v-3.941h2.354v.482l-1.786-.08zm9.253 3.458l-.974-1.608-.974 1.608h-.568l1.218-2.01-1.137-1.931h.568l.893 1.448.893-1.448h.568l-1.217 1.93 1.217 2.011h-.487zm6.331-1.528v1.528h-.568v-3.941h.73c1.137 0 1.705.402 1.705 1.126 0 .885-.487 1.368-1.542 1.368 0 0-.162 0-.325-.08zm0-1.93v1.448h.406c.65 0 1.055-.242 1.055-.805 0-.482-.405-.724-1.055-.724a.89.89 0 01-.406.08zm7.874 0v1.126h1.298v.482h-1.298v1.448h1.785v.483h-2.353v-3.941h2.353v.482l-1.785-.08zm9.334 3.458l-1.055-1.689h-.568v1.69h-.568v-3.942h.974c.974 0 1.461.402 1.461 1.126a.91.91 0 01-.244.644c-.162.24-.325.321-.568.402l1.136 1.85h-.568v-.08zm-1.623-3.458v1.287h.406c.324 0 .568-.08.73-.161.162-.08.244-.322.244-.563 0-.242-.082-.402-.244-.483a1.63 1.63 0 00-.73-.16c-.163.08-.244.08-.406.08zm8.604 0v3.458h-.569v-3.458h-1.298v-.483h3.165v.483h-1.298z" fill="#A5A5A5"/><path d="M80.439 19.385c-.974 0-1.705-.885-1.705-2.01 0-1.127.73-2.012 1.705-2.012h10.47c.975 0 1.705.885 1.705 2.011 0 1.126-.73 2.011-1.704 2.011H80.439z" fill="#A5A5A5"/></svg><svg fill="none" viewBox="0 0 33 33" id="pause" xmlns="http://www.w3.org/2000/svg"><path d="M11.344 7.219a3.094 3.094 0 013.094 3.093v12.376a3.094 3.094 0 11-6.188 0V10.313a3.094 3.094 0 013.094-3.094zm10.312 0a3.094 3.094 0 013.094 3.093v12.376a3.094 3.094 0 11-6.188 0V10.313a3.094 3.094 0 013.094-3.094z" fill="#0498CE"/></svg><svg viewBox="0 0 12 12" id="plane" xmlns="http://www.w3.org/2000/svg"><path d="M.168 4.348a.53.53 0 00.339.515L4.884 6.7l2.008 4.003a.59.59 0 00.53.311h.034a.617.617 0 00.322-.11.537.537 0 00.199-.257l3.264-9.088a.504.504 0 00-.142-.544.626.626 0 00-.595-.13L.568 3.871a.585.585 0 00-.28.182.507.507 0 00-.12.295zm9.604-2.12l-2.44 6.793-1.478-2.946a.56.56 0 00-.287-.263L2.345 4.46 9.772 2.23z"/></svg><svg fill="none" viewBox="0 0 14 16" id="play" xmlns="http://www.w3.org/2000/svg"><g clip-path="url(#bhclip0)"><path d="M13.262 6.71l-11-6.504C1.37-.322 0 .191 0 1.496V14.5c0 1.172 1.272 1.878 2.263 1.29l11-6.5c.98-.578.984-2.003 0-2.58z" fill="#0498CE"/></g><defs><clipPath id="bhclip0"><path fill="#fff" d="M0 0h14v16H0z"/></clipPath></defs></svg><svg fill="none" viewBox="0 0 24 24" id="plus" xmlns="http://www.w3.org/2000/svg"><path d="M12 12H4m8 8v-8 8zm0-8V4v8zm0 0h8-8z" stroke="#2E3831" stroke-width="2" stroke-linecap="round"/></svg><svg fill="none" viewBox="0 0 10 10" id="popup-close-icon" xmlns="http://www.w3.org/2000/svg"><path d="M8.59 0L5 3.59 1.41 0 0 1.41 3.59 5 0 8.59 1.41 10 5 6.41 8.59 10 10 8.59 6.41 5 10 1.41 8.59 0z" fill="#2E3831"/></svg><svg fill="none" viewBox="0 0 65 65" id="proc_leaf" xmlns="http://www.w3.org/2000/svg"><path d="M18.246 45.356a23.194 23.194 0 00-3.17 11.71 2.708 2.708 0 11-5.416 0c0-5.75 1.725-11.274 4.835-15.922a18.964 18.964 0 01.167-20.957c3.906-5.788 16.7-10.89 38.377-15.31-.725 18.555-3.038 30.726-6.94 36.514a18.96 18.96 0 01-27.853 3.965zm3.266-4.334a13.542 13.542 0 0020.096-2.665c2.719-4.03 4.704-13.04 5.644-26.677-16.096 3.757-25.63 7.879-28.1 11.538a13.536 13.536 0 00-.966 13.466 28.871 28.871 0 013.792-3.142l1.375-.953a2.709 2.709 0 013.085 4.452l-1.373.954a23.196 23.196 0 00-3.553 3.03v-.003z" fill="#fff"/></svg><svg fill="none" viewBox="0 0 71 71" id="proc_medal" xmlns="http://www.w3.org/2000/svg"><path d="M23.666 65.084l11.833-5.917 11.834 5.916V36.898a17.683 17.683 0 01-11.834 4.52 17.683 17.683 0 01-11.833-4.52v28.187z" stroke="#fff" stroke-width="4" stroke-linecap="round" stroke-linejoin="round"/><path d="M53.25 23.667a17.705 17.705 0 01-5.917 13.23 17.683 17.683 0 01-11.833 4.52 17.683 17.683 0 01-11.833-4.52 17.705 17.705 0 01-5.917-13.23c0-9.802 7.948-17.75 17.75-17.75s17.75 7.948 17.75 17.75z" stroke="#fff" stroke-width="4" stroke-linecap="round" stroke-linejoin="round"/></svg><svg fill="none" viewBox="0 0 49 50" id="proc_settings" xmlns="http://www.w3.org/2000/svg"><path d="M29.103 50h-9.1a2.5 2.5 0 01-2.442-1.965l-1.018-4.71a20.003 20.003 0 01-3.837-2.218L8.113 42.57a2.5 2.5 0 01-2.925-1.133L.628 33.56a2.515 2.515 0 01.483-3.098l3.562-3.25a20.25 20.25 0 010-4.43L1.111 19.54a2.515 2.515 0 01-.483-3.1l4.55-7.883a2.5 2.5 0 012.925-1.132l4.593 1.462c.61-.45 1.245-.87 1.9-1.25a21.034 21.034 0 011.947-.964l1.02-4.705A2.5 2.5 0 0120.003 0h9.1a2.5 2.5 0 012.44 1.968l1.03 4.707a19.985 19.985 0 013.835 2.218l4.595-1.463a2.5 2.5 0 012.923 1.133l4.55 7.882a2.518 2.518 0 01-.483 3.098l-3.562 3.25a20.251 20.251 0 010 4.43l3.562 3.25a2.518 2.518 0 01.483 3.097l-4.55 7.883A2.5 2.5 0 0141 42.584l-4.593-1.462a19.948 19.948 0 01-3.835 2.215l-1.03 4.697A2.5 2.5 0 0129.103 50zm-15.5-14.428l2.05 1.5c.463.34.943.653 1.443.938.47.273.95.518 1.447.74l2.333 1.023L22.018 45h5.075l1.143-5.23 2.332-1.023a15.455 15.455 0 002.883-1.664l2.05-1.5 5.105 1.625 2.537-4.395-3.957-3.608.28-2.53a14.832 14.832 0 000-3.33l-.28-2.53 3.96-3.615-2.54-4.397-5.103 1.624-2.052-1.5a15.565 15.565 0 00-2.883-1.677l-2.332-1.023L27.093 5h-5.075l-1.15 5.23-2.325 1.02a15.02 15.02 0 00-2.882 1.665l-2.053 1.5-5.1-1.625-2.542 4.41 3.957 3.602-.28 2.533a14.832 14.832 0 000 3.33l.28 2.53-3.957 3.608 2.537 4.395 5.1-1.626zM24.543 35a10 10 0 110-20 10 10 0 010 20zm0-15a5 5 0 105 5.225v1V25a5 5 0 00-5-5z" fill="#fff"/></svg><svg fill="none" viewBox="0 0 18 26" id="slider-next-white" xmlns="http://www.w3.org/2000/svg"><path d="M16.523 14.328L5.898 24.953a1.867 1.867 0 01-2.648 0l-1.766-1.765a1.867 1.867 0 010-2.649l7.532-7.531-7.532-7.531a1.867 1.867 0 010-2.649l1.758-1.781a1.867 1.867 0 012.649 0l10.625 10.625a1.87 1.87 0 01.007 2.656z" fill="#F7F7F7"/></svg><svg fill="none" viewBox="0 0 48 48" id="success-one" xmlns="http://www.w3.org/2000/svg"><g clip-path="url(#boclip0)" stroke="#0498CE" stroke-width="4" stroke-linecap="round" stroke-linejoin="round"><path d="M40 23v-9L31 4H10a2 2 0 00-2 2v36a2 2 0 002 2h12"/><path d="M30 4v10h10M26 39l6 5 9-11"/></g><defs><clipPath id="boclip0"><path fill="#fff" d="M0 0h48v48H0z"/></clipPath></defs></svg><svg fill="none" viewBox="0 0 34 34" id="suitcase" xmlns="http://www.w3.org/2000/svg"><path d="M26.917 14.167H7.083A2.833 2.833 0 004.25 17v11.333a2.833 2.833 0 002.833 2.834h19.834a2.833 2.833 0 002.833-2.834V17a2.833 2.833 0 00-2.833-2.833zM8.5 8.5a4.25 4.25 0 014.25-4.25h8.5A4.25 4.25 0 0125.5 8.5v5.667h-17V8.5z" stroke="#2E3831" stroke-width="2.333" stroke-linecap="round" stroke-linejoin="round"/></svg><svg fill="none" viewBox="0 0 53 18" id="visa-logo" xmlns="http://www.w3.org/2000/svg"><g clip-path="url(#bqclip0)"><path d="M23.014 16.242h-4.208L21.438 0h4.207l-2.631 16.242zM37.613.705A10.524 10.524 0 0033.779 0c-4.221 0-7.194 2.254-7.212 5.475-.035 2.377 2.128 3.698 3.746 4.49 1.654.81 2.216 1.34 2.216 2.06-.017 1.11-1.336 1.62-2.567 1.62-1.707 0-2.621-.263-4.01-.88l-.564-.264-.598 3.715c1.003.457 2.85.863 4.768.88 4.485 0 7.405-2.218 7.44-5.65.017-1.885-1.126-3.329-3.589-4.509C31.914 6.18 31 5.67 31 4.895c.017-.705.774-1.426 2.462-1.426a7.255 7.255 0 013.184.634l.387.175.58-3.573zm6.634 9.783c.354-.933 1.712-4.544 1.712-4.544-.017.034.353-.95.565-1.555l.3 1.4s.811 3.887.988 4.7h-3.565zM49.541 0h-3.317c-1.023 0-1.8.293-2.242 1.348l-6.37 14.894h4.5l.9-2.436h5.506c.123.57.512 2.436.512 2.436H53L49.54 0h.001zM4.48 2.067C3.161 1.337 1.665.75 0 .335L.073 0H7.18c.963.035 1.745.335 2 1.395l1.544 7.628c-.688-1.822-1.828-3.504-3.391-4.925 1.458 1.398 2.603 3.114 3.092 4.74l.461 2.25L15.106 0h4.555L12.89 16.242H8.333L4.48 2.067z" fill="#fff"/></g><defs><clipPath id="bqclip0"><path fill="#fff" d="M0 0h53v18H0z"/></clipPath></defs></svg><svg fill="none" viewBox="0 0 34 34" id="vk-fill" xmlns="http://www.w3.org/2000/svg"><g clip-path="url(#brclip0)"><path fill-rule="evenodd" clip-rule="evenodd" d="M33.22 8.426c.236-.773 0-1.343-1.125-1.343h-3.72c-.945 0-1.382.492-1.618 1.034 0 0-1.892 4.528-4.57 7.47-.868.852-1.261 1.122-1.735 1.122-.236 0-.592-.27-.592-1.045V8.426c0-.93-.26-1.343-1.048-1.343h-5.848c-.59 0-.946.43-.946.84 0 .88 1.34 1.084 1.477 3.56v5.38c0 1.181-.217 1.395-.69 1.395-1.26 0-4.328-4.549-6.148-9.754-.353-1.013-.71-1.42-1.66-1.42H1.275C.212 7.083 0 7.573 0 8.116c0 .967 1.26 5.766 5.872 12.114 3.074 4.335 7.402 6.686 11.345 6.686 2.364 0 2.656-.522 2.656-1.421v-3.277c0-1.044.224-1.252.973-1.252.553 0 1.498.272 3.705 2.361 2.522 2.478 2.937 3.589 4.356 3.589h3.719c1.062 0 1.595-.522 1.289-1.553-.337-1.026-1.541-2.515-3.138-4.281-.867-1.006-2.167-2.09-2.563-2.632-.55-.696-.393-1.006 0-1.625 0 0 4.534-6.27 5.005-8.4h.002z" fill="#fff"/></g><defs><clipPath id="brclip0"><path fill="#fff" d="M0 0h34v34H0z"/></clipPath></defs></svg><svg viewBox="0 0 34 34" id="vk-fill2" xmlns="http://www.w3.org/2000/svg"><g clip-path="url(#bsclip0)"><path fill-rule="evenodd" clip-rule="evenodd" d="M33.22 8.427c.236-.774 0-1.343-1.125-1.343h-3.72c-.945 0-1.382.491-1.618 1.034 0 0-1.892 4.527-4.57 7.468-.868.853-1.261 1.124-1.735 1.124-.236 0-.592-.27-.592-1.046V8.427c0-.93-.26-1.343-1.048-1.343h-5.848c-.59 0-.946.43-.946.84 0 .88 1.34 1.083 1.477 3.56v5.38c0 1.18-.217 1.394-.69 1.394-1.26 0-4.328-4.549-6.148-9.754-.353-1.012-.71-1.42-1.66-1.42H1.275C.212 7.083 0 7.574 0 8.117c0 .966 1.26 5.765 5.872 12.114 3.074 4.335 7.402 6.685 11.345 6.685 2.364 0 2.656-.522 2.656-1.421v-3.277c0-1.044.224-1.252.973-1.252.553 0 1.498.272 3.705 2.361 2.522 2.478 2.937 3.589 4.356 3.589h3.719c1.062 0 1.595-.522 1.289-1.553-.337-1.026-1.541-2.514-3.138-4.281-.867-1.006-2.167-2.09-2.563-2.632-.55-.696-.393-1.006 0-1.625 0 0 4.534-6.27 5.005-8.4h.002z"/></g><defs><clipPath id="bsclip0"><path fill="#fff" d="M0 0h34v34H0z"/></clipPath></defs></svg></svg>