<?xml version="1.0" encoding="utf-8"?><svg viewBox="0 0 45 46" xmlns="http://www.w3.org/2000/svg" xmlns:xlink="http://www.w3.org/1999/xlink"><style>:root>svg{display:none}:root>svg:target{display:block}</style><svg viewBox="0 0 40 40" id="delivery" xmlns="http://www.w3.org/2000/svg"><path d="M5 20h15v2.5H5V20zM2.5 13.75H15v2.5H2.5v-2.5z"/><path d="M37.399 20.758l-3.75-8.75a1.249 1.249 0 00-1.149-.758h-3.75v-2.5A1.25 1.25 0 0027.5 7.5h-20V10h18.75v15.695a4.99 4.99 0 00-2.322 3.055h-7.855a5 5 0 100 2.5h7.855a4.975 4.975 0 009.645 0h2.677A1.25 1.25 0 0037.5 30v-8.75c0-.17-.034-.337-.101-.492zM11.25 32.5a2.5 2.5 0 110-5 2.5 2.5 0 010 5zm17.5-18.75h2.925l2.68 6.25H28.75v-6.25zm0 18.75a2.5 2.5 0 110-5 2.5 2.5 0 010 5zM35 28.75h-1.427A4.994 4.994 0 0028.75 25v-2.5H35v6.25z"/></svg><svg viewBox="0 0 34 34" id="instagram-fill" xmlns="http://www.w3.org/2000/svg"><path fill-rule="evenodd" clip-rule="evenodd" d="M10.577 1.51c1.662-.077 2.191-.093 6.424-.093 4.233 0 4.763.018 6.423.093 1.66.075 2.794.34 3.786.724a7.667 7.667 0 012.76 1.8 7.612 7.612 0 011.796 2.757c.385.992.649 2.125.725 3.783.077 1.664.094 2.194.094 6.426 0 4.233-.019 4.763-.094 6.424-.075 1.658-.34 2.791-.725 3.783a7.644 7.644 0 01-1.796 2.761 7.642 7.642 0 01-2.76 1.796c-.992.386-2.125.65-3.783.726-1.663.076-2.193.093-6.426.093-4.233 0-4.763-.018-6.424-.093-1.658-.075-2.791-.34-3.783-.726a7.645 7.645 0 01-2.76-1.796 7.638 7.638 0 01-1.799-2.76c-.384-.991-.647-2.125-.724-3.782-.076-1.665-.093-2.195-.093-6.426 0-4.233.018-4.763.093-6.423.076-1.66.34-2.794.724-3.786a7.644 7.644 0 011.8-2.76 7.639 7.639 0 012.758-1.797c.991-.384 2.125-.647 3.782-.724h.002zm12.721 2.805c-1.643-.075-2.136-.09-6.297-.09-4.16 0-4.653.015-6.297.09-1.52.07-2.344.323-2.894.537a4.839 4.839 0 00-1.792 1.164A4.834 4.834 0 004.853 7.81c-.214.55-.467 1.374-.537 2.894-.075 1.643-.09 2.136-.09 6.297 0 4.16.015 4.654.09 6.297.07 1.52.323 2.345.537 2.894.25.676.648 1.29 1.165 1.792a4.84 4.84 0 001.792 1.165c.55.214 1.374.467 2.894.537 1.644.075 2.135.09 6.297.09s4.654-.015 6.297-.09c1.52-.07 2.345-.323 2.895-.537a4.84 4.84 0 001.792-1.165 4.838 4.838 0 001.164-1.792c.214-.55.468-1.374.537-2.894.075-1.643.09-2.136.09-6.297 0-4.16-.015-4.654-.09-6.297-.07-1.52-.323-2.345-.537-2.894a4.839 4.839 0 00-1.164-1.793 4.835 4.835 0 00-1.792-1.164c-.55-.214-1.375-.468-2.895-.537zm-8.287 17.489a5.198 5.198 0 005.667-8.48 5.2 5.2 0 10-5.667 8.48zm-3.673-10.468a8.01 8.01 0 1111.327 11.327 8.01 8.01 0 01-11.327-11.327zm15.45-1.153a1.893 1.893 0 00-2.063-3.112 1.895 1.895 0 102.063 3.112z"/></svg><svg viewBox="0 0 45 45" id="leaf" xmlns="http://www.w3.org/2000/svg"><path d="M34.194 11.1a26.623 26.623 0 00-9.584-9.505l-.704-.407-.704.407A26.463 26.463 0 009.982 25.44c.14 4.119 1.715 7.584 4.555 10.021 2.173 1.866 4.96 3.005 7.963 3.276v4.858h2.813v-22.5H22.5v14.812c-4.752-.55-9.481-3.907-9.707-10.562a23.756 23.756 0 0111.113-20.89 23.756 23.756 0 0111.113 20.89c-.18 5.324-3.244 8.536-6.894 9.89v2.977a13.727 13.727 0 005.15-2.75c2.84-2.438 4.415-5.904 4.555-10.022A26.45 26.45 0 0034.194 11.1z"/></svg><svg viewBox="0 0 45 46" id="medal" xmlns="http://www.w3.org/2000/svg"><path d="M28.861 34.5l.325 6.738-6.667-4.736-6.705 4.74.325-6.742h-2.816l-.485 10.063h3.225L22.515 40l6.422 4.563h3.226L31.677 34.5h-2.816zM36.51 13.918l-.192-4.317-3.56-2.33-2.28-3.64-4.224-.198L22.5 1.446l-3.754 1.988-4.223.197-2.28 3.64-3.56 2.33-.193 4.317-1.945 3.838 1.945 3.837.193 4.317 3.56 2.33 2.28 3.64 4.223.198 3.754 1.987 3.754-1.987 4.224-.198 2.279-3.64 3.56-2.33.194-4.316 1.944-3.838-1.944-3.838zm-2.78 6.913l-.155 3.46-2.855 1.868-1.826 2.917-3.385.158-3.009 1.594-3.009-1.594-3.385-.158-1.826-2.917-2.854-1.867-.155-3.46-1.559-3.076 1.56-3.076.154-3.46 2.854-1.867 1.826-2.918 3.385-.158 3.01-1.593 3.008 1.593 3.385.158 1.827 2.918 2.854 1.867.154 3.46 1.56 3.076-1.56 3.075z"/></svg><svg viewBox="0 0 12 12" id="plane" xmlns="http://www.w3.org/2000/svg"><path d="M.168 4.348a.53.53 0 00.339.515L4.884 6.7l2.008 4.003a.59.59 0 00.53.311h.034a.617.617 0 00.322-.11.537.537 0 00.199-.257l3.264-9.088a.504.504 0 00-.142-.544.626.626 0 00-.595-.13L.568 3.871a.585.585 0 00-.28.182.507.507 0 00-.12.295zm9.604-2.12l-2.44 6.793-1.478-2.946a.56.56 0 00-.287-.263L2.345 4.46 9.772 2.23z"/></svg><svg fill="none" viewBox="0 0 24 24" id="plus" xmlns="http://www.w3.org/2000/svg"><path d="M12 12H4m8 8v-8 8zm0-8V4v8zm0 0h8-8z" stroke="#2E3831" stroke-width="2" stroke-linecap="round"/></svg><svg fill="none" viewBox="0 0 34 34" id="suitcase" xmlns="http://www.w3.org/2000/svg"><path d="M26.917 14.167H7.083A2.833 2.833 0 004.25 17v11.333a2.833 2.833 0 002.833 2.834h19.834a2.833 2.833 0 002.833-2.834V17a2.833 2.833 0 00-2.833-2.833zM8.5 8.5a4.25 4.25 0 014.25-4.25h8.5A4.25 4.25 0 0125.5 8.5v5.667h-17V8.5z" stroke="#2E3831" stroke-width="2.333" stroke-linecap="round" stroke-linejoin="round"/></svg><svg viewBox="0 0 34 34" id="vk-fill" xmlns="http://www.w3.org/2000/svg"><g clip-path="url(#hclip0)"><path fill-rule="evenodd" clip-rule="evenodd" d="M33.22 8.427c.236-.774 0-1.343-1.125-1.343h-3.72c-.945 0-1.382.491-1.618 1.034 0 0-1.892 4.527-4.57 7.468-.868.853-1.261 1.124-1.735 1.124-.236 0-.592-.27-.592-1.046V8.427c0-.93-.26-1.343-1.048-1.343h-5.848c-.59 0-.946.43-.946.84 0 .88 1.34 1.083 1.477 3.56v5.38c0 1.18-.217 1.394-.69 1.394-1.26 0-4.328-4.549-6.148-9.754-.353-1.012-.71-1.42-1.66-1.42H1.275C.212 7.083 0 7.574 0 8.117c0 .966 1.26 5.765 5.872 12.114 3.074 4.335 7.402 6.685 11.345 6.685 2.364 0 2.656-.522 2.656-1.421v-3.277c0-1.044.224-1.252.973-1.252.553 0 1.498.272 3.705 2.361 2.522 2.478 2.937 3.589 4.356 3.589h3.719c1.062 0 1.595-.522 1.289-1.553-.337-1.026-1.541-2.514-3.138-4.281-.867-1.006-2.167-2.09-2.563-2.632-.55-.696-.393-1.006 0-1.625 0 0 4.534-6.27 5.005-8.4h.002z"/></g><defs><clipPath id="hclip0"><path fill="#fff" d="M0 0h34v34H0z"/></clipPath></defs></svg></svg>