<?xml version="1.0" encoding="utf-8"?><svg viewBox="0 0 34 34" xmlns="http://www.w3.org/2000/svg" xmlns:xlink="http://www.w3.org/1999/xlink"><style>:root>svg{display:none}:root>svg:target{display:block}</style><svg fill="none" viewBox="0 0 34 34" id="instagram-fill" xmlns="http://www.w3.org/2000/svg"><path fill-rule="evenodd" clip-rule="evenodd" d="M10.577 1.51c1.662-.077 2.191-.093 6.424-.093 4.233 0 4.763.018 6.423.093 1.66.075 2.794.34 3.786.724a7.667 7.667 0 012.76 1.8 7.612 7.612 0 011.796 2.757c.385.992.649 2.125.725 3.783.077 1.664.094 2.194.094 6.426 0 4.233-.019 4.763-.094 6.424-.075 1.658-.34 2.791-.725 3.783a7.644 7.644 0 01-1.796 2.761 7.642 7.642 0 01-2.76 1.796c-.992.386-2.125.65-3.783.726-1.663.076-2.193.093-6.426.093-4.233 0-4.763-.018-6.424-.093-1.658-.075-2.791-.34-3.783-.726a7.645 7.645 0 01-2.76-1.796 7.638 7.638 0 01-1.799-2.76c-.384-.991-.647-2.125-.724-3.782-.076-1.665-.093-2.195-.093-6.426 0-4.233.018-4.763.093-6.423.076-1.66.34-2.794.724-3.786a7.644 7.644 0 011.8-2.76 7.639 7.639 0 012.758-1.797c.991-.384 2.125-.647 3.782-.724h.002zm12.721 2.805c-1.643-.075-2.136-.09-6.297-.09-4.16 0-4.653.015-6.297.09-1.52.07-2.344.323-2.894.537a4.839 4.839 0 00-1.792 1.164A4.834 4.834 0 004.853 7.81c-.214.55-.467 1.374-.537 2.894-.075 1.643-.09 2.136-.09 6.297 0 4.16.015 4.654.09 6.297.07 1.52.323 2.345.537 2.894.25.676.648 1.29 1.165 1.792a4.84 4.84 0 001.792 1.165c.55.214 1.374.467 2.894.537 1.644.075 2.135.09 6.297.09s4.654-.015 6.297-.09c1.52-.07 2.345-.323 2.895-.537a4.84 4.84 0 001.792-1.165 4.838 4.838 0 001.164-1.792c.214-.55.468-1.374.537-2.894.075-1.643.09-2.136.09-6.297 0-4.16-.015-4.654-.09-6.297-.07-1.52-.323-2.345-.537-2.894a4.839 4.839 0 00-1.164-1.793 4.835 4.835 0 00-1.792-1.164c-.55-.214-1.375-.468-2.895-.537zm-8.287 17.489a5.198 5.198 0 005.667-8.48 5.2 5.2 0 10-5.667 8.48zm-3.673-10.468a8.01 8.01 0 1111.327 11.327 8.01 8.01 0 01-11.327-11.327zm15.45-1.153a1.893 1.893 0 00-2.063-3.112 1.895 1.895 0 102.063 3.112z" fill="#fff"/></svg><svg fill="none" viewBox="0 0 12 12" id="plane" xmlns="http://www.w3.org/2000/svg"><path d="M.168 4.348a.53.53 0 00.339.515L4.884 6.7l2.008 4.003a.59.59 0 00.53.311h.034a.617.617 0 00.322-.11.537.537 0 00.199-.257l3.264-9.088a.504.504 0 00-.142-.544.626.626 0 00-.595-.13L.568 3.871a.585.585 0 00-.28.182.507.507 0 00-.12.295zm9.604-2.12l-2.44 6.793-1.478-2.946a.56.56 0 00-.287-.263L2.345 4.46 9.772 2.23z" fill="#2E3831"/></svg><svg fill="none" viewBox="0 0 34 34" id="vk-fill" xmlns="http://www.w3.org/2000/svg"><g clip-path="url(#cclip0)"><path fill-rule="evenodd" clip-rule="evenodd" d="M33.22 8.427c.236-.774 0-1.343-1.125-1.343h-3.72c-.945 0-1.382.491-1.618 1.034 0 0-1.892 4.527-4.57 7.468-.868.853-1.261 1.124-1.735 1.124-.236 0-.592-.27-.592-1.046V8.427c0-.93-.26-1.343-1.048-1.343h-5.848c-.59 0-.946.43-.946.84 0 .88 1.34 1.083 1.477 3.56v5.38c0 1.18-.217 1.394-.69 1.394-1.26 0-4.328-4.549-6.148-9.754-.353-1.012-.71-1.42-1.66-1.42H1.275C.212 7.083 0 7.574 0 8.117c0 .966 1.26 5.765 5.872 12.114 3.074 4.335 7.402 6.685 11.345 6.685 2.364 0 2.656-.522 2.656-1.421v-3.277c0-1.044.224-1.252.973-1.252.553 0 1.498.272 3.705 2.361 2.522 2.478 2.937 3.589 4.356 3.589h3.719c1.062 0 1.595-.522 1.289-1.553-.337-1.026-1.541-2.514-3.138-4.281-.867-1.006-2.167-2.09-2.563-2.632-.55-.696-.393-1.006 0-1.625 0 0 4.534-6.27 5.005-8.4h.002z" fill="#fff"/></g><defs><clipPath id="cclip0"><path fill="#fff" d="M0 0h34v34H0z"/></clipPath></defs></svg></svg>